<?xml version="1.0" encoding="utf-8" standalone="no"?>
<!DOCTYPE svg PUBLIC "-//W3C//DTD SVG 1.1//EN"
  "http://www.w3.org/Graphics/SVG/1.1/DTD/svg11.dtd">
<svg xmlns:xlink="http://www.w3.org/1999/xlink" width="864pt" height="432pt" viewBox="0 0 864 432" xmlns="http://www.w3.org/2000/svg" version="1.1">
 <metadata>
  <rdf:RDF xmlns:dc="http://purl.org/dc/elements/1.1/" xmlns:cc="http://creativecommons.org/ns#" xmlns:rdf="http://www.w3.org/1999/02/22-rdf-syntax-ns#">
   <cc:Work>
    <dc:type rdf:resource="http://purl.org/dc/dcmitype/StillImage"/>
    <dc:date>2024-02-03T08:20:07.666279</dc:date>
    <dc:format>image/svg+xml</dc:format>
    <dc:creator>
     <cc:Agent>
      <dc:title>Matplotlib v3.8.2, https://matplotlib.org/</dc:title>
     </cc:Agent>
    </dc:creator>
   </cc:Work>
  </rdf:RDF>
 </metadata>
 <defs>
  <style type="text/css">*{stroke-linejoin: round; stroke-linecap: butt}</style>
 </defs>
 <g id="figure_1">
  <g id="patch_1">
   <path d="M 0 432 
L 864 432 
L 864 0 
L 0 0 
z
" style="fill: #ffffff"/>
  </g>
  <g id="axes_1">
   <g id="patch_2">
    <path d="M 108 384.48 
L 777.6 384.48 
L 777.6 51.84 
L 108 51.84 
z
" style="fill: #ffffff"/>
   </g>
   <g id="PolyCollection_1"/>
   <g id="PolyCollection_2"/>
   <g id="PolyCollection_3"/>
   <g id="PolyCollection_4"/>
   <g id="matplotlib.axis_1">
    <g id="xtick_1">
     <g id="line2d_1">
      <defs>
       <path id="m1a05d1bf70" d="M 0 0 
L 0 3.5 
" style="stroke: #000000; stroke-width: 0.8"/>
      </defs>
      <g>
       <use xlink:href="#m1a05d1bf70" x="138.436364" y="384.48" style="stroke: #000000; stroke-width: 0.8"/>
      </g>
     </g>
     <g id="text_1">
      <!-- 0 -->
      <g transform="translate(135.255114 399.078438) scale(0.1 -0.1)">
       <defs>
        <path id="DejaVuSans-30" d="M 2034 4250 
Q 1547 4250 1301 3770 
Q 1056 3291 1056 2328 
Q 1056 1369 1301 889 
Q 1547 409 2034 409 
Q 2525 409 2770 889 
Q 3016 1369 3016 2328 
Q 3016 3291 2770 3770 
Q 2525 4250 2034 4250 
z
M 2034 4750 
Q 2819 4750 3233 4129 
Q 3647 3509 3647 2328 
Q 3647 1150 3233 529 
Q 2819 -91 2034 -91 
Q 1250 -91 836 529 
Q 422 1150 422 2328 
Q 422 3509 836 4129 
Q 1250 4750 2034 4750 
z
" transform="scale(0.015625)"/>
       </defs>
       <use xlink:href="#DejaVuSans-30"/>
      </g>
     </g>
    </g>
    <g id="xtick_2">
     <g id="line2d_2">
      <g>
       <use xlink:href="#m1a05d1bf70" x="265.785165" y="384.48" style="stroke: #000000; stroke-width: 0.8"/>
      </g>
     </g>
     <g id="text_2">
      <!-- 50 -->
      <g transform="translate(259.422665 399.078438) scale(0.1 -0.1)">
       <defs>
        <path id="DejaVuSans-35" d="M 691 4666 
L 3169 4666 
L 3169 4134 
L 1269 4134 
L 1269 2991 
Q 1406 3038 1543 3061 
Q 1681 3084 1819 3084 
Q 2600 3084 3056 2656 
Q 3513 2228 3513 1497 
Q 3513 744 3044 326 
Q 2575 -91 1722 -91 
Q 1428 -91 1123 -41 
Q 819 9 494 109 
L 494 744 
Q 775 591 1075 516 
Q 1375 441 1709 441 
Q 2250 441 2565 725 
Q 2881 1009 2881 1497 
Q 2881 1984 2565 2268 
Q 2250 2553 1709 2553 
Q 1456 2553 1204 2497 
Q 953 2441 691 2322 
L 691 4666 
z
" transform="scale(0.015625)"/>
       </defs>
       <use xlink:href="#DejaVuSans-35"/>
       <use xlink:href="#DejaVuSans-30" x="63.623047"/>
      </g>
     </g>
    </g>
    <g id="xtick_3">
     <g id="line2d_3">
      <g>
       <use xlink:href="#m1a05d1bf70" x="393.133967" y="384.48" style="stroke: #000000; stroke-width: 0.8"/>
      </g>
     </g>
     <g id="text_3">
      <!-- 100 -->
      <g transform="translate(383.590217 399.078438) scale(0.1 -0.1)">
       <defs>
        <path id="DejaVuSans-31" d="M 794 531 
L 1825 531 
L 1825 4091 
L 703 3866 
L 703 4441 
L 1819 4666 
L 2450 4666 
L 2450 531 
L 3481 531 
L 3481 0 
L 794 0 
L 794 531 
z
" transform="scale(0.015625)"/>
       </defs>
       <use xlink:href="#DejaVuSans-31"/>
       <use xlink:href="#DejaVuSans-30" x="63.623047"/>
       <use xlink:href="#DejaVuSans-30" x="127.246094"/>
      </g>
     </g>
    </g>
    <g id="xtick_4">
     <g id="line2d_4">
      <g>
       <use xlink:href="#m1a05d1bf70" x="520.482769" y="384.48" style="stroke: #000000; stroke-width: 0.8"/>
      </g>
     </g>
     <g id="text_4">
      <!-- 150 -->
      <g transform="translate(510.939019 399.078438) scale(0.1 -0.1)">
       <use xlink:href="#DejaVuSans-31"/>
       <use xlink:href="#DejaVuSans-35" x="63.623047"/>
       <use xlink:href="#DejaVuSans-30" x="127.246094"/>
      </g>
     </g>
    </g>
    <g id="xtick_5">
     <g id="line2d_5">
      <g>
       <use xlink:href="#m1a05d1bf70" x="647.831571" y="384.48" style="stroke: #000000; stroke-width: 0.8"/>
      </g>
     </g>
     <g id="text_5">
      <!-- 200 -->
      <g transform="translate(638.287821 399.078438) scale(0.1 -0.1)">
       <defs>
        <path id="DejaVuSans-32" d="M 1228 531 
L 3431 531 
L 3431 0 
L 469 0 
L 469 531 
Q 828 903 1448 1529 
Q 2069 2156 2228 2338 
Q 2531 2678 2651 2914 
Q 2772 3150 2772 3378 
Q 2772 3750 2511 3984 
Q 2250 4219 1831 4219 
Q 1534 4219 1204 4116 
Q 875 4013 500 3803 
L 500 4441 
Q 881 4594 1212 4672 
Q 1544 4750 1819 4750 
Q 2544 4750 2975 4387 
Q 3406 4025 3406 3419 
Q 3406 3131 3298 2873 
Q 3191 2616 2906 2266 
Q 2828 2175 2409 1742 
Q 1991 1309 1228 531 
z
" transform="scale(0.015625)"/>
       </defs>
       <use xlink:href="#DejaVuSans-32"/>
       <use xlink:href="#DejaVuSans-30" x="63.623047"/>
       <use xlink:href="#DejaVuSans-30" x="127.246094"/>
      </g>
     </g>
    </g>
    <g id="xtick_6">
     <g id="line2d_6">
      <g>
       <use xlink:href="#m1a05d1bf70" x="775.180373" y="384.48" style="stroke: #000000; stroke-width: 0.8"/>
      </g>
     </g>
     <g id="text_6">
      <!-- 250 -->
      <g transform="translate(765.636623 399.078438) scale(0.1 -0.1)">
       <use xlink:href="#DejaVuSans-32"/>
       <use xlink:href="#DejaVuSans-35" x="63.623047"/>
       <use xlink:href="#DejaVuSans-30" x="127.246094"/>
      </g>
     </g>
    </g>
    <g id="text_7">
     <!-- Data Index -->
     <g transform="translate(415.50625 412.756563) scale(0.1 -0.1)">
      <defs>
       <path id="DejaVuSans-44" d="M 1259 4147 
L 1259 519 
L 2022 519 
Q 2988 519 3436 956 
Q 3884 1394 3884 2338 
Q 3884 3275 3436 3711 
Q 2988 4147 2022 4147 
L 1259 4147 
z
M 628 4666 
L 1925 4666 
Q 3281 4666 3915 4102 
Q 4550 3538 4550 2338 
Q 4550 1131 3912 565 
Q 3275 0 1925 0 
L 628 0 
L 628 4666 
z
" transform="scale(0.015625)"/>
       <path id="DejaVuSans-61" d="M 2194 1759 
Q 1497 1759 1228 1600 
Q 959 1441 959 1056 
Q 959 750 1161 570 
Q 1363 391 1709 391 
Q 2188 391 2477 730 
Q 2766 1069 2766 1631 
L 2766 1759 
L 2194 1759 
z
M 3341 1997 
L 3341 0 
L 2766 0 
L 2766 531 
Q 2569 213 2275 61 
Q 1981 -91 1556 -91 
Q 1019 -91 701 211 
Q 384 513 384 1019 
Q 384 1609 779 1909 
Q 1175 2209 1959 2209 
L 2766 2209 
L 2766 2266 
Q 2766 2663 2505 2880 
Q 2244 3097 1772 3097 
Q 1472 3097 1187 3025 
Q 903 2953 641 2809 
L 641 3341 
Q 956 3463 1253 3523 
Q 1550 3584 1831 3584 
Q 2591 3584 2966 3190 
Q 3341 2797 3341 1997 
z
" transform="scale(0.015625)"/>
       <path id="DejaVuSans-74" d="M 1172 4494 
L 1172 3500 
L 2356 3500 
L 2356 3053 
L 1172 3053 
L 1172 1153 
Q 1172 725 1289 603 
Q 1406 481 1766 481 
L 2356 481 
L 2356 0 
L 1766 0 
Q 1100 0 847 248 
Q 594 497 594 1153 
L 594 3053 
L 172 3053 
L 172 3500 
L 594 3500 
L 594 4494 
L 1172 4494 
z
" transform="scale(0.015625)"/>
       <path id="DejaVuSans-20" transform="scale(0.015625)"/>
       <path id="DejaVuSans-49" d="M 628 4666 
L 1259 4666 
L 1259 0 
L 628 0 
L 628 4666 
z
" transform="scale(0.015625)"/>
       <path id="DejaVuSans-6e" d="M 3513 2113 
L 3513 0 
L 2938 0 
L 2938 2094 
Q 2938 2591 2744 2837 
Q 2550 3084 2163 3084 
Q 1697 3084 1428 2787 
Q 1159 2491 1159 1978 
L 1159 0 
L 581 0 
L 581 3500 
L 1159 3500 
L 1159 2956 
Q 1366 3272 1645 3428 
Q 1925 3584 2291 3584 
Q 2894 3584 3203 3211 
Q 3513 2838 3513 2113 
z
" transform="scale(0.015625)"/>
       <path id="DejaVuSans-64" d="M 2906 2969 
L 2906 4863 
L 3481 4863 
L 3481 0 
L 2906 0 
L 2906 525 
Q 2725 213 2448 61 
Q 2172 -91 1784 -91 
Q 1150 -91 751 415 
Q 353 922 353 1747 
Q 353 2572 751 3078 
Q 1150 3584 1784 3584 
Q 2172 3584 2448 3432 
Q 2725 3281 2906 2969 
z
M 947 1747 
Q 947 1113 1208 752 
Q 1469 391 1925 391 
Q 2381 391 2643 752 
Q 2906 1113 2906 1747 
Q 2906 2381 2643 2742 
Q 2381 3103 1925 3103 
Q 1469 3103 1208 2742 
Q 947 2381 947 1747 
z
" transform="scale(0.015625)"/>
       <path id="DejaVuSans-65" d="M 3597 1894 
L 3597 1613 
L 953 1613 
Q 991 1019 1311 708 
Q 1631 397 2203 397 
Q 2534 397 2845 478 
Q 3156 559 3463 722 
L 3463 178 
Q 3153 47 2828 -22 
Q 2503 -91 2169 -91 
Q 1331 -91 842 396 
Q 353 884 353 1716 
Q 353 2575 817 3079 
Q 1281 3584 2069 3584 
Q 2775 3584 3186 3129 
Q 3597 2675 3597 1894 
z
M 3022 2063 
Q 3016 2534 2758 2815 
Q 2500 3097 2075 3097 
Q 1594 3097 1305 2825 
Q 1016 2553 972 2059 
L 3022 2063 
z
" transform="scale(0.015625)"/>
       <path id="DejaVuSans-78" d="M 3513 3500 
L 2247 1797 
L 3578 0 
L 2900 0 
L 1881 1375 
L 863 0 
L 184 0 
L 1544 1831 
L 300 3500 
L 978 3500 
L 1906 2253 
L 2834 3500 
L 3513 3500 
z
" transform="scale(0.015625)"/>
      </defs>
      <use xlink:href="#DejaVuSans-44"/>
      <use xlink:href="#DejaVuSans-61" x="77.001953"/>
      <use xlink:href="#DejaVuSans-74" x="138.28125"/>
      <use xlink:href="#DejaVuSans-61" x="177.490234"/>
      <use xlink:href="#DejaVuSans-20" x="238.769531"/>
      <use xlink:href="#DejaVuSans-49" x="270.556641"/>
      <use xlink:href="#DejaVuSans-6e" x="300.048828"/>
      <use xlink:href="#DejaVuSans-64" x="363.427734"/>
      <use xlink:href="#DejaVuSans-65" x="426.904297"/>
      <use xlink:href="#DejaVuSans-78" x="486.677734"/>
     </g>
    </g>
   </g>
   <g id="matplotlib.axis_2">
    <g id="ytick_1">
     <g id="line2d_7">
      <defs>
       <path id="m584a86ed78" d="M 0 0 
L -3.5 0 
" style="stroke: #000000; stroke-width: 0.8"/>
      </defs>
      <g>
       <use xlink:href="#m584a86ed78" x="108" y="369.367933" style="stroke: #000000; stroke-width: 0.8"/>
      </g>
     </g>
     <g id="text_8">
      <!-- 0.00 -->
      <g transform="translate(78.734375 373.167152) scale(0.1 -0.1)">
       <defs>
        <path id="DejaVuSans-2e" d="M 684 794 
L 1344 794 
L 1344 0 
L 684 0 
L 684 794 
z
" transform="scale(0.015625)"/>
       </defs>
       <use xlink:href="#DejaVuSans-30"/>
       <use xlink:href="#DejaVuSans-2e" x="63.623047"/>
       <use xlink:href="#DejaVuSans-30" x="95.410156"/>
       <use xlink:href="#DejaVuSans-30" x="159.033203"/>
      </g>
     </g>
    </g>
    <g id="ytick_2">
     <g id="line2d_8">
      <g>
       <use xlink:href="#m584a86ed78" x="108" y="331.566942" style="stroke: #000000; stroke-width: 0.8"/>
      </g>
     </g>
     <g id="text_9">
      <!-- 0.25 -->
      <g transform="translate(78.734375 335.366161) scale(0.1 -0.1)">
       <use xlink:href="#DejaVuSans-30"/>
       <use xlink:href="#DejaVuSans-2e" x="63.623047"/>
       <use xlink:href="#DejaVuSans-32" x="95.410156"/>
       <use xlink:href="#DejaVuSans-35" x="159.033203"/>
      </g>
     </g>
    </g>
    <g id="ytick_3">
     <g id="line2d_9">
      <g>
       <use xlink:href="#m584a86ed78" x="108" y="293.76595" style="stroke: #000000; stroke-width: 0.8"/>
      </g>
     </g>
     <g id="text_10">
      <!-- 0.50 -->
      <g transform="translate(78.734375 297.565169) scale(0.1 -0.1)">
       <use xlink:href="#DejaVuSans-30"/>
       <use xlink:href="#DejaVuSans-2e" x="63.623047"/>
       <use xlink:href="#DejaVuSans-35" x="95.410156"/>
       <use xlink:href="#DejaVuSans-30" x="159.033203"/>
      </g>
     </g>
    </g>
    <g id="ytick_4">
     <g id="line2d_10">
      <g>
       <use xlink:href="#m584a86ed78" x="108" y="255.964958" style="stroke: #000000; stroke-width: 0.8"/>
      </g>
     </g>
     <g id="text_11">
      <!-- 0.75 -->
      <g transform="translate(78.734375 259.764177) scale(0.1 -0.1)">
       <defs>
        <path id="DejaVuSans-37" d="M 525 4666 
L 3525 4666 
L 3525 4397 
L 1831 0 
L 1172 0 
L 2766 4134 
L 525 4134 
L 525 4666 
z
" transform="scale(0.015625)"/>
       </defs>
       <use xlink:href="#DejaVuSans-30"/>
       <use xlink:href="#DejaVuSans-2e" x="63.623047"/>
       <use xlink:href="#DejaVuSans-37" x="95.410156"/>
       <use xlink:href="#DejaVuSans-35" x="159.033203"/>
      </g>
     </g>
    </g>
    <g id="ytick_5">
     <g id="line2d_11">
      <g>
       <use xlink:href="#m584a86ed78" x="108" y="218.163967" style="stroke: #000000; stroke-width: 0.8"/>
      </g>
     </g>
     <g id="text_12">
      <!-- 1.00 -->
      <g transform="translate(78.734375 221.963185) scale(0.1 -0.1)">
       <use xlink:href="#DejaVuSans-31"/>
       <use xlink:href="#DejaVuSans-2e" x="63.623047"/>
       <use xlink:href="#DejaVuSans-30" x="95.410156"/>
       <use xlink:href="#DejaVuSans-30" x="159.033203"/>
      </g>
     </g>
    </g>
    <g id="ytick_6">
     <g id="line2d_12">
      <g>
       <use xlink:href="#m584a86ed78" x="108" y="180.362975" style="stroke: #000000; stroke-width: 0.8"/>
      </g>
     </g>
     <g id="text_13">
      <!-- 1.25 -->
      <g transform="translate(78.734375 184.162194) scale(0.1 -0.1)">
       <use xlink:href="#DejaVuSans-31"/>
       <use xlink:href="#DejaVuSans-2e" x="63.623047"/>
       <use xlink:href="#DejaVuSans-32" x="95.410156"/>
       <use xlink:href="#DejaVuSans-35" x="159.033203"/>
      </g>
     </g>
    </g>
    <g id="ytick_7">
     <g id="line2d_13">
      <g>
       <use xlink:href="#m584a86ed78" x="108" y="142.561983" style="stroke: #000000; stroke-width: 0.8"/>
      </g>
     </g>
     <g id="text_14">
      <!-- 1.50 -->
      <g transform="translate(78.734375 146.361202) scale(0.1 -0.1)">
       <use xlink:href="#DejaVuSans-31"/>
       <use xlink:href="#DejaVuSans-2e" x="63.623047"/>
       <use xlink:href="#DejaVuSans-35" x="95.410156"/>
       <use xlink:href="#DejaVuSans-30" x="159.033203"/>
      </g>
     </g>
    </g>
    <g id="ytick_8">
     <g id="line2d_14">
      <g>
       <use xlink:href="#m584a86ed78" x="108" y="104.760992" style="stroke: #000000; stroke-width: 0.8"/>
      </g>
     </g>
     <g id="text_15">
      <!-- 1.75 -->
      <g transform="translate(78.734375 108.56021) scale(0.1 -0.1)">
       <use xlink:href="#DejaVuSans-31"/>
       <use xlink:href="#DejaVuSans-2e" x="63.623047"/>
       <use xlink:href="#DejaVuSans-37" x="95.410156"/>
       <use xlink:href="#DejaVuSans-35" x="159.033203"/>
      </g>
     </g>
    </g>
    <g id="ytick_9">
     <g id="line2d_15">
      <g>
       <use xlink:href="#m584a86ed78" x="108" y="66.96" style="stroke: #000000; stroke-width: 0.8"/>
      </g>
     </g>
     <g id="text_16">
      <!-- 2.00 -->
      <g transform="translate(78.734375 70.759219) scale(0.1 -0.1)">
       <use xlink:href="#DejaVuSans-32"/>
       <use xlink:href="#DejaVuSans-2e" x="63.623047"/>
       <use xlink:href="#DejaVuSans-30" x="95.410156"/>
       <use xlink:href="#DejaVuSans-30" x="159.033203"/>
      </g>
     </g>
    </g>
    <g id="text_17">
     <!-- Probability -->
     <g transform="translate(72.654687 244.588906) rotate(-90) scale(0.1 -0.1)">
      <defs>
       <path id="DejaVuSans-50" d="M 1259 4147 
L 1259 2394 
L 2053 2394 
Q 2494 2394 2734 2622 
Q 2975 2850 2975 3272 
Q 2975 3691 2734 3919 
Q 2494 4147 2053 4147 
L 1259 4147 
z
M 628 4666 
L 2053 4666 
Q 2838 4666 3239 4311 
Q 3641 3956 3641 3272 
Q 3641 2581 3239 2228 
Q 2838 1875 2053 1875 
L 1259 1875 
L 1259 0 
L 628 0 
L 628 4666 
z
" transform="scale(0.015625)"/>
       <path id="DejaVuSans-72" d="M 2631 2963 
Q 2534 3019 2420 3045 
Q 2306 3072 2169 3072 
Q 1681 3072 1420 2755 
Q 1159 2438 1159 1844 
L 1159 0 
L 581 0 
L 581 3500 
L 1159 3500 
L 1159 2956 
Q 1341 3275 1631 3429 
Q 1922 3584 2338 3584 
Q 2397 3584 2469 3576 
Q 2541 3569 2628 3553 
L 2631 2963 
z
" transform="scale(0.015625)"/>
       <path id="DejaVuSans-6f" d="M 1959 3097 
Q 1497 3097 1228 2736 
Q 959 2375 959 1747 
Q 959 1119 1226 758 
Q 1494 397 1959 397 
Q 2419 397 2687 759 
Q 2956 1122 2956 1747 
Q 2956 2369 2687 2733 
Q 2419 3097 1959 3097 
z
M 1959 3584 
Q 2709 3584 3137 3096 
Q 3566 2609 3566 1747 
Q 3566 888 3137 398 
Q 2709 -91 1959 -91 
Q 1206 -91 779 398 
Q 353 888 353 1747 
Q 353 2609 779 3096 
Q 1206 3584 1959 3584 
z
" transform="scale(0.015625)"/>
       <path id="DejaVuSans-62" d="M 3116 1747 
Q 3116 2381 2855 2742 
Q 2594 3103 2138 3103 
Q 1681 3103 1420 2742 
Q 1159 2381 1159 1747 
Q 1159 1113 1420 752 
Q 1681 391 2138 391 
Q 2594 391 2855 752 
Q 3116 1113 3116 1747 
z
M 1159 2969 
Q 1341 3281 1617 3432 
Q 1894 3584 2278 3584 
Q 2916 3584 3314 3078 
Q 3713 2572 3713 1747 
Q 3713 922 3314 415 
Q 2916 -91 2278 -91 
Q 1894 -91 1617 61 
Q 1341 213 1159 525 
L 1159 0 
L 581 0 
L 581 4863 
L 1159 4863 
L 1159 2969 
z
" transform="scale(0.015625)"/>
       <path id="DejaVuSans-69" d="M 603 3500 
L 1178 3500 
L 1178 0 
L 603 0 
L 603 3500 
z
M 603 4863 
L 1178 4863 
L 1178 4134 
L 603 4134 
L 603 4863 
z
" transform="scale(0.015625)"/>
       <path id="DejaVuSans-6c" d="M 603 4863 
L 1178 4863 
L 1178 0 
L 603 0 
L 603 4863 
z
" transform="scale(0.015625)"/>
       <path id="DejaVuSans-79" d="M 2059 -325 
Q 1816 -950 1584 -1140 
Q 1353 -1331 966 -1331 
L 506 -1331 
L 506 -850 
L 844 -850 
Q 1081 -850 1212 -737 
Q 1344 -625 1503 -206 
L 1606 56 
L 191 3500 
L 800 3500 
L 1894 763 
L 2988 3500 
L 3597 3500 
L 2059 -325 
z
" transform="scale(0.015625)"/>
      </defs>
      <use xlink:href="#DejaVuSans-50"/>
      <use xlink:href="#DejaVuSans-72" x="58.552734"/>
      <use xlink:href="#DejaVuSans-6f" x="97.416016"/>
      <use xlink:href="#DejaVuSans-62" x="158.597656"/>
      <use xlink:href="#DejaVuSans-61" x="222.074219"/>
      <use xlink:href="#DejaVuSans-62" x="283.353516"/>
      <use xlink:href="#DejaVuSans-69" x="346.830078"/>
      <use xlink:href="#DejaVuSans-6c" x="374.613281"/>
      <use xlink:href="#DejaVuSans-69" x="402.396484"/>
      <use xlink:href="#DejaVuSans-74" x="430.179688"/>
      <use xlink:href="#DejaVuSans-79" x="469.388672"/>
     </g>
    </g>
   </g>
   <g id="line2d_16">
    <path d="M 138.436364 367.546345 
L 140.98334 218.842056 
L 143.530316 368.148842 
L 146.077292 366.874649 
L 148.624268 367.21267 
L 151.171244 219.881226 
L 153.71822 284.678488 
L 156.265196 218.754485 
L 158.812172 218.386999 
L 161.359148 368.810882 
L 163.906124 218.24739 
L 166.4531 335.640889 
L 169.000076 218.178924 
L 171.547052 219.827672 
L 174.094028 349.116339 
L 176.641004 256.94755 
L 179.18798 263.924031 
L 181.734956 369.208728 
L 184.281932 266.835259 
L 186.828908 218.457529 
L 189.375884 218.304808 
L 191.92286 246.06057 
L 194.469836 330.578544 
L 197.016812 218.640073 
L 199.563789 302.1062 
L 202.110765 368.853615 
L 204.657741 298.773675 
L 207.204717 219.5835 
L 209.751693 237.419065 
L 212.298669 218.443982 
L 214.845645 221.088998 
L 217.392621 326.881083 
L 219.939597 326.176862 
L 222.486573 276.453908 
L 225.033549 239.220589 
L 227.580525 254.244166 
L 230.127501 369.001341 
L 232.674477 296.096136 
L 235.221453 364.502016 
L 237.768429 368.972474 
L 240.315405 364.062506 
L 242.862381 223.258457 
L 245.409357 292.551131 
L 247.956333 358.310604 
L 250.503309 344.324549 
L 253.050285 221.440834 
L 255.597261 365.414509 
L 258.144237 368.770362 
L 260.691213 218.230455 
L 263.238189 218.235653 
L 265.785165 218.649172 
L 268.332141 281.152746 
L 270.879118 297.826267 
L 273.426094 368.597611 
L 275.97307 366.144997 
L 278.520046 369.249026 
L 281.067022 367.834085 
L 283.613998 221.31467 
L 286.160974 368.260289 
L 288.70795 218.767127 
L 291.254926 367.60414 
L 293.801902 218.272875 
L 296.348878 369.042762 
L 298.895854 363.574279 
L 301.44283 330.110928 
L 303.989806 367.327645 
L 306.536782 275.726335 
L 309.083758 233.66401 
L 311.630734 368.029432 
L 314.17771 334.957499 
L 316.724686 368.673688 
L 319.271662 222.022847 
L 321.818638 220.87265 
L 324.365614 337.833408 
L 326.91259 218.210502 
L 329.459566 348.631873 
L 332.006542 368.910491 
L 334.553518 220.200264 
L 337.100494 368.464102 
L 339.647471 222.734909 
L 342.194447 323.084646 
L 344.741423 319.711162 
L 347.288399 368.735998 
L 349.835375 360.99834 
L 352.382351 218.395556 
L 354.929327 368.080527 
L 357.476303 341.569322 
L 360.023279 221.422538 
L 362.570255 366.586459 
L 365.117231 218.582602 
L 367.664207 366.433604 
L 370.211183 218.494298 
L 372.758159 224.330988 
L 375.305135 218.851836 
L 377.852111 224.962654 
L 380.399087 368.908848 
L 382.946063 220.27523 
L 385.493039 227.039786 
L 388.040015 367.218763 
L 390.586991 368.721723 
L 393.133967 236.416279 
L 395.680943 326.294565 
L 398.227919 354.288774 
L 400.774895 242.685152 
L 403.321871 335.790954 
L 405.868847 361.415415 
L 408.415824 367.112655 
L 410.9628 367.389837 
L 413.509776 368.0958 
L 416.056752 327.147522 
L 418.603728 255.267887 
L 421.150704 369.242011 
L 426.244656 369.323282 
L 428.791632 366.966101 
L 431.338608 342.068633 
L 433.885584 245.006367 
L 436.43256 219.461265 
L 438.979536 368.664343 
L 441.526512 243.96351 
L 444.073488 367.207535 
L 446.620464 222.259596 
L 449.16744 334.003644 
L 451.714416 330.654283 
L 454.261392 353.375209 
L 456.808368 344.430274 
L 459.355344 218.809935 
L 461.90232 252.232725 
L 464.449296 346.300249 
L 466.996272 360.989887 
L 469.543248 336.257478 
L 472.090224 369.198734 
L 474.6372 218.276541 
L 477.184176 353.718261 
L 479.731153 227.841018 
L 482.278129 253.793548 
L 484.825105 238.680348 
L 487.372081 369.36 
L 489.919057 367.77336 
L 492.466033 232.295688 
L 495.013009 368.669682 
L 497.559985 218.640627 
L 500.106961 219.705639 
L 502.653937 218.272974 
L 505.200913 221.093391 
L 507.747889 367.766593 
L 510.294865 328.823991 
L 512.841841 322.262241 
L 515.388817 369.286704 
L 517.935793 245.824582 
L 520.482769 368.485703 
L 523.029745 368.304537 
L 525.576721 365.760655 
L 528.123697 223.390982 
L 530.670673 245.546792 
L 533.217649 219.073115 
L 535.764625 340.287253 
L 538.311601 368.839433 
L 540.858577 242.987176 
L 543.405553 369.022184 
L 545.952529 243.542124 
L 548.499506 218.832905 
L 551.046482 222.147544 
L 553.593458 236.480224 
L 556.140434 218.537295 
L 558.68741 368.788328 
L 561.234386 368.111466 
L 563.781362 368.715262 
L 566.328338 342.09315 
L 568.875314 368.336513 
L 571.42229 252.769817 
L 573.969266 242.867784 
L 576.516242 368.000562 
L 579.063218 368.803096 
L 581.610194 248.645808 
L 584.15717 254.297377 
L 586.704146 218.639272 
L 589.251122 218.320799 
L 591.798098 367.762056 
L 594.345074 367.526957 
L 596.89205 243.863384 
L 599.439026 219.035382 
L 601.986002 357.674787 
L 604.532978 276.291076 
L 607.079954 355.422683 
L 609.62693 218.468022 
L 612.173906 219.561555 
L 614.720882 354.920574 
L 617.267859 218.246091 
L 619.814835 369.263302 
L 622.361811 363.583392 
L 624.908787 334.128709 
L 627.455763 257.688812 
L 630.002739 348.190639 
L 632.549715 326.67711 
L 635.096691 369.266782 
L 637.643667 362.634857 
L 640.190643 347.407694 
L 642.737619 218.61085 
L 645.284595 362.437793 
L 647.831571 361.5383 
L 650.378547 297.740593 
L 652.925523 357.679468 
L 655.472499 219.116384 
L 658.019475 220.776336 
L 660.566451 218.176459 
L 663.113427 369.121736 
L 665.660403 361.209007 
L 668.207379 347.205132 
L 670.754355 219.080589 
L 673.301331 248.954625 
L 675.848307 369.025873 
L 678.395283 367.454382 
L 680.942259 362.810881 
L 683.489235 352.239187 
L 686.036211 218.398156 
L 688.583188 219.771996 
L 691.130164 218.389232 
L 693.67714 360.483847 
L 696.224116 368.952588 
L 698.771092 219.826986 
L 701.318068 368.675449 
L 703.865044 330.362907 
L 706.41202 218.264739 
L 708.958996 239.38521 
L 711.505972 219.62373 
L 714.052948 218.25798 
L 716.599924 314.911453 
L 719.1469 369.25921 
L 721.693876 220.853353 
L 724.240852 218.513898 
L 726.787828 249.941176 
L 729.334804 261.468484 
L 731.88178 307.797698 
L 734.428756 305.197985 
L 736.975732 367.743437 
L 739.522708 368.884658 
L 742.069684 218.35711 
L 744.61666 218.74399 
L 747.163636 228.159882 
L 747.163636 228.159882 
" clip-path="url(#p30b4abaa82)" style="fill: none; stroke: #1f77b4; stroke-width: 1.5; stroke-linecap: square"/>
    <defs>
     <path id="m9db81dba4a" d="M 0 3 
C 0.795609 3 1.55874 2.683901 2.12132 2.12132 
C 2.683901 1.55874 3 0.795609 3 0 
C 3 -0.795609 2.683901 -1.55874 2.12132 -2.12132 
C 1.55874 -2.683901 0.795609 -3 0 -3 
C -0.795609 -3 -1.55874 -2.683901 -2.12132 -2.12132 
C -2.683901 -1.55874 -3 -0.795609 -3 0 
C -3 0.795609 -2.683901 1.55874 -2.12132 2.12132 
C -1.55874 2.683901 -0.795609 3 0 3 
z
" style="stroke: #ffffff; stroke-width: 0.75"/>
    </defs>
    <g clip-path="url(#p30b4abaa82)">
     <use xlink:href="#m9db81dba4a" x="138.436364" y="367.546345" style="fill: #1f77b4; stroke: #ffffff; stroke-width: 0.75"/>
     <use xlink:href="#m9db81dba4a" x="140.98334" y="218.842056" style="fill: #1f77b4; stroke: #ffffff; stroke-width: 0.75"/>
     <use xlink:href="#m9db81dba4a" x="143.530316" y="368.148842" style="fill: #1f77b4; stroke: #ffffff; stroke-width: 0.75"/>
     <use xlink:href="#m9db81dba4a" x="146.077292" y="366.874649" style="fill: #1f77b4; stroke: #ffffff; stroke-width: 0.75"/>
     <use xlink:href="#m9db81dba4a" x="148.624268" y="367.21267" style="fill: #1f77b4; stroke: #ffffff; stroke-width: 0.75"/>
     <use xlink:href="#m9db81dba4a" x="151.171244" y="219.881226" style="fill: #1f77b4; stroke: #ffffff; stroke-width: 0.75"/>
     <use xlink:href="#m9db81dba4a" x="153.71822" y="284.678488" style="fill: #1f77b4; stroke: #ffffff; stroke-width: 0.75"/>
     <use xlink:href="#m9db81dba4a" x="156.265196" y="218.754485" style="fill: #1f77b4; stroke: #ffffff; stroke-width: 0.75"/>
     <use xlink:href="#m9db81dba4a" x="158.812172" y="218.386999" style="fill: #1f77b4; stroke: #ffffff; stroke-width: 0.75"/>
     <use xlink:href="#m9db81dba4a" x="161.359148" y="368.810882" style="fill: #1f77b4; stroke: #ffffff; stroke-width: 0.75"/>
     <use xlink:href="#m9db81dba4a" x="163.906124" y="218.24739" style="fill: #1f77b4; stroke: #ffffff; stroke-width: 0.75"/>
     <use xlink:href="#m9db81dba4a" x="166.4531" y="335.640889" style="fill: #1f77b4; stroke: #ffffff; stroke-width: 0.75"/>
     <use xlink:href="#m9db81dba4a" x="169.000076" y="218.178924" style="fill: #1f77b4; stroke: #ffffff; stroke-width: 0.75"/>
     <use xlink:href="#m9db81dba4a" x="171.547052" y="219.827672" style="fill: #1f77b4; stroke: #ffffff; stroke-width: 0.75"/>
     <use xlink:href="#m9db81dba4a" x="174.094028" y="349.116339" style="fill: #1f77b4; stroke: #ffffff; stroke-width: 0.75"/>
     <use xlink:href="#m9db81dba4a" x="176.641004" y="256.94755" style="fill: #1f77b4; stroke: #ffffff; stroke-width: 0.75"/>
     <use xlink:href="#m9db81dba4a" x="179.18798" y="263.924031" style="fill: #1f77b4; stroke: #ffffff; stroke-width: 0.75"/>
     <use xlink:href="#m9db81dba4a" x="181.734956" y="369.208728" style="fill: #1f77b4; stroke: #ffffff; stroke-width: 0.75"/>
     <use xlink:href="#m9db81dba4a" x="184.281932" y="266.835259" style="fill: #1f77b4; stroke: #ffffff; stroke-width: 0.75"/>
     <use xlink:href="#m9db81dba4a" x="186.828908" y="218.457529" style="fill: #1f77b4; stroke: #ffffff; stroke-width: 0.75"/>
     <use xlink:href="#m9db81dba4a" x="189.375884" y="218.304808" style="fill: #1f77b4; stroke: #ffffff; stroke-width: 0.75"/>
     <use xlink:href="#m9db81dba4a" x="191.92286" y="246.06057" style="fill: #1f77b4; stroke: #ffffff; stroke-width: 0.75"/>
     <use xlink:href="#m9db81dba4a" x="194.469836" y="330.578544" style="fill: #1f77b4; stroke: #ffffff; stroke-width: 0.75"/>
     <use xlink:href="#m9db81dba4a" x="197.016812" y="218.640073" style="fill: #1f77b4; stroke: #ffffff; stroke-width: 0.75"/>
     <use xlink:href="#m9db81dba4a" x="199.563789" y="302.1062" style="fill: #1f77b4; stroke: #ffffff; stroke-width: 0.75"/>
     <use xlink:href="#m9db81dba4a" x="202.110765" y="368.853615" style="fill: #1f77b4; stroke: #ffffff; stroke-width: 0.75"/>
     <use xlink:href="#m9db81dba4a" x="204.657741" y="298.773675" style="fill: #1f77b4; stroke: #ffffff; stroke-width: 0.75"/>
     <use xlink:href="#m9db81dba4a" x="207.204717" y="219.5835" style="fill: #1f77b4; stroke: #ffffff; stroke-width: 0.75"/>
     <use xlink:href="#m9db81dba4a" x="209.751693" y="237.419065" style="fill: #1f77b4; stroke: #ffffff; stroke-width: 0.75"/>
     <use xlink:href="#m9db81dba4a" x="212.298669" y="218.443982" style="fill: #1f77b4; stroke: #ffffff; stroke-width: 0.75"/>
     <use xlink:href="#m9db81dba4a" x="214.845645" y="221.088998" style="fill: #1f77b4; stroke: #ffffff; stroke-width: 0.75"/>
     <use xlink:href="#m9db81dba4a" x="217.392621" y="326.881083" style="fill: #1f77b4; stroke: #ffffff; stroke-width: 0.75"/>
     <use xlink:href="#m9db81dba4a" x="219.939597" y="326.176862" style="fill: #1f77b4; stroke: #ffffff; stroke-width: 0.75"/>
     <use xlink:href="#m9db81dba4a" x="222.486573" y="276.453908" style="fill: #1f77b4; stroke: #ffffff; stroke-width: 0.75"/>
     <use xlink:href="#m9db81dba4a" x="225.033549" y="239.220589" style="fill: #1f77b4; stroke: #ffffff; stroke-width: 0.75"/>
     <use xlink:href="#m9db81dba4a" x="227.580525" y="254.244166" style="fill: #1f77b4; stroke: #ffffff; stroke-width: 0.75"/>
     <use xlink:href="#m9db81dba4a" x="230.127501" y="369.001341" style="fill: #1f77b4; stroke: #ffffff; stroke-width: 0.75"/>
     <use xlink:href="#m9db81dba4a" x="232.674477" y="296.096136" style="fill: #1f77b4; stroke: #ffffff; stroke-width: 0.75"/>
     <use xlink:href="#m9db81dba4a" x="235.221453" y="364.502016" style="fill: #1f77b4; stroke: #ffffff; stroke-width: 0.75"/>
     <use xlink:href="#m9db81dba4a" x="237.768429" y="368.972474" style="fill: #1f77b4; stroke: #ffffff; stroke-width: 0.75"/>
     <use xlink:href="#m9db81dba4a" x="240.315405" y="364.062506" style="fill: #1f77b4; stroke: #ffffff; stroke-width: 0.75"/>
     <use xlink:href="#m9db81dba4a" x="242.862381" y="223.258457" style="fill: #1f77b4; stroke: #ffffff; stroke-width: 0.75"/>
     <use xlink:href="#m9db81dba4a" x="245.409357" y="292.551131" style="fill: #1f77b4; stroke: #ffffff; stroke-width: 0.75"/>
     <use xlink:href="#m9db81dba4a" x="247.956333" y="358.310604" style="fill: #1f77b4; stroke: #ffffff; stroke-width: 0.75"/>
     <use xlink:href="#m9db81dba4a" x="250.503309" y="344.324549" style="fill: #1f77b4; stroke: #ffffff; stroke-width: 0.75"/>
     <use xlink:href="#m9db81dba4a" x="253.050285" y="221.440834" style="fill: #1f77b4; stroke: #ffffff; stroke-width: 0.75"/>
     <use xlink:href="#m9db81dba4a" x="255.597261" y="365.414509" style="fill: #1f77b4; stroke: #ffffff; stroke-width: 0.75"/>
     <use xlink:href="#m9db81dba4a" x="258.144237" y="368.770362" style="fill: #1f77b4; stroke: #ffffff; stroke-width: 0.75"/>
     <use xlink:href="#m9db81dba4a" x="260.691213" y="218.230455" style="fill: #1f77b4; stroke: #ffffff; stroke-width: 0.75"/>
     <use xlink:href="#m9db81dba4a" x="263.238189" y="218.235653" style="fill: #1f77b4; stroke: #ffffff; stroke-width: 0.75"/>
     <use xlink:href="#m9db81dba4a" x="265.785165" y="218.649172" style="fill: #1f77b4; stroke: #ffffff; stroke-width: 0.75"/>
     <use xlink:href="#m9db81dba4a" x="268.332141" y="281.152746" style="fill: #1f77b4; stroke: #ffffff; stroke-width: 0.75"/>
     <use xlink:href="#m9db81dba4a" x="270.879118" y="297.826267" style="fill: #1f77b4; stroke: #ffffff; stroke-width: 0.75"/>
     <use xlink:href="#m9db81dba4a" x="273.426094" y="368.597611" style="fill: #1f77b4; stroke: #ffffff; stroke-width: 0.75"/>
     <use xlink:href="#m9db81dba4a" x="275.97307" y="366.144997" style="fill: #1f77b4; stroke: #ffffff; stroke-width: 0.75"/>
     <use xlink:href="#m9db81dba4a" x="278.520046" y="369.249026" style="fill: #1f77b4; stroke: #ffffff; stroke-width: 0.75"/>
     <use xlink:href="#m9db81dba4a" x="281.067022" y="367.834085" style="fill: #1f77b4; stroke: #ffffff; stroke-width: 0.75"/>
     <use xlink:href="#m9db81dba4a" x="283.613998" y="221.31467" style="fill: #1f77b4; stroke: #ffffff; stroke-width: 0.75"/>
     <use xlink:href="#m9db81dba4a" x="286.160974" y="368.260289" style="fill: #1f77b4; stroke: #ffffff; stroke-width: 0.75"/>
     <use xlink:href="#m9db81dba4a" x="288.70795" y="218.767127" style="fill: #1f77b4; stroke: #ffffff; stroke-width: 0.75"/>
     <use xlink:href="#m9db81dba4a" x="291.254926" y="367.60414" style="fill: #1f77b4; stroke: #ffffff; stroke-width: 0.75"/>
     <use xlink:href="#m9db81dba4a" x="293.801902" y="218.272875" style="fill: #1f77b4; stroke: #ffffff; stroke-width: 0.75"/>
     <use xlink:href="#m9db81dba4a" x="296.348878" y="369.042762" style="fill: #1f77b4; stroke: #ffffff; stroke-width: 0.75"/>
     <use xlink:href="#m9db81dba4a" x="298.895854" y="363.574279" style="fill: #1f77b4; stroke: #ffffff; stroke-width: 0.75"/>
     <use xlink:href="#m9db81dba4a" x="301.44283" y="330.110928" style="fill: #1f77b4; stroke: #ffffff; stroke-width: 0.75"/>
     <use xlink:href="#m9db81dba4a" x="303.989806" y="367.327645" style="fill: #1f77b4; stroke: #ffffff; stroke-width: 0.75"/>
     <use xlink:href="#m9db81dba4a" x="306.536782" y="275.726335" style="fill: #1f77b4; stroke: #ffffff; stroke-width: 0.75"/>
     <use xlink:href="#m9db81dba4a" x="309.083758" y="233.66401" style="fill: #1f77b4; stroke: #ffffff; stroke-width: 0.75"/>
     <use xlink:href="#m9db81dba4a" x="311.630734" y="368.029432" style="fill: #1f77b4; stroke: #ffffff; stroke-width: 0.75"/>
     <use xlink:href="#m9db81dba4a" x="314.17771" y="334.957499" style="fill: #1f77b4; stroke: #ffffff; stroke-width: 0.75"/>
     <use xlink:href="#m9db81dba4a" x="316.724686" y="368.673688" style="fill: #1f77b4; stroke: #ffffff; stroke-width: 0.75"/>
     <use xlink:href="#m9db81dba4a" x="319.271662" y="222.022847" style="fill: #1f77b4; stroke: #ffffff; stroke-width: 0.75"/>
     <use xlink:href="#m9db81dba4a" x="321.818638" y="220.87265" style="fill: #1f77b4; stroke: #ffffff; stroke-width: 0.75"/>
     <use xlink:href="#m9db81dba4a" x="324.365614" y="337.833408" style="fill: #1f77b4; stroke: #ffffff; stroke-width: 0.75"/>
     <use xlink:href="#m9db81dba4a" x="326.91259" y="218.210502" style="fill: #1f77b4; stroke: #ffffff; stroke-width: 0.75"/>
     <use xlink:href="#m9db81dba4a" x="329.459566" y="348.631873" style="fill: #1f77b4; stroke: #ffffff; stroke-width: 0.75"/>
     <use xlink:href="#m9db81dba4a" x="332.006542" y="368.910491" style="fill: #1f77b4; stroke: #ffffff; stroke-width: 0.75"/>
     <use xlink:href="#m9db81dba4a" x="334.553518" y="220.200264" style="fill: #1f77b4; stroke: #ffffff; stroke-width: 0.75"/>
     <use xlink:href="#m9db81dba4a" x="337.100494" y="368.464102" style="fill: #1f77b4; stroke: #ffffff; stroke-width: 0.75"/>
     <use xlink:href="#m9db81dba4a" x="339.647471" y="222.734909" style="fill: #1f77b4; stroke: #ffffff; stroke-width: 0.75"/>
     <use xlink:href="#m9db81dba4a" x="342.194447" y="323.084646" style="fill: #1f77b4; stroke: #ffffff; stroke-width: 0.75"/>
     <use xlink:href="#m9db81dba4a" x="344.741423" y="319.711162" style="fill: #1f77b4; stroke: #ffffff; stroke-width: 0.75"/>
     <use xlink:href="#m9db81dba4a" x="347.288399" y="368.735998" style="fill: #1f77b4; stroke: #ffffff; stroke-width: 0.75"/>
     <use xlink:href="#m9db81dba4a" x="349.835375" y="360.99834" style="fill: #1f77b4; stroke: #ffffff; stroke-width: 0.75"/>
     <use xlink:href="#m9db81dba4a" x="352.382351" y="218.395556" style="fill: #1f77b4; stroke: #ffffff; stroke-width: 0.75"/>
     <use xlink:href="#m9db81dba4a" x="354.929327" y="368.080527" style="fill: #1f77b4; stroke: #ffffff; stroke-width: 0.75"/>
     <use xlink:href="#m9db81dba4a" x="357.476303" y="341.569322" style="fill: #1f77b4; stroke: #ffffff; stroke-width: 0.75"/>
     <use xlink:href="#m9db81dba4a" x="360.023279" y="221.422538" style="fill: #1f77b4; stroke: #ffffff; stroke-width: 0.75"/>
     <use xlink:href="#m9db81dba4a" x="362.570255" y="366.586459" style="fill: #1f77b4; stroke: #ffffff; stroke-width: 0.75"/>
     <use xlink:href="#m9db81dba4a" x="365.117231" y="218.582602" style="fill: #1f77b4; stroke: #ffffff; stroke-width: 0.75"/>
     <use xlink:href="#m9db81dba4a" x="367.664207" y="366.433604" style="fill: #1f77b4; stroke: #ffffff; stroke-width: 0.75"/>
     <use xlink:href="#m9db81dba4a" x="370.211183" y="218.494298" style="fill: #1f77b4; stroke: #ffffff; stroke-width: 0.75"/>
     <use xlink:href="#m9db81dba4a" x="372.758159" y="224.330988" style="fill: #1f77b4; stroke: #ffffff; stroke-width: 0.75"/>
     <use xlink:href="#m9db81dba4a" x="375.305135" y="218.851836" style="fill: #1f77b4; stroke: #ffffff; stroke-width: 0.75"/>
     <use xlink:href="#m9db81dba4a" x="377.852111" y="224.962654" style="fill: #1f77b4; stroke: #ffffff; stroke-width: 0.75"/>
     <use xlink:href="#m9db81dba4a" x="380.399087" y="368.908848" style="fill: #1f77b4; stroke: #ffffff; stroke-width: 0.75"/>
     <use xlink:href="#m9db81dba4a" x="382.946063" y="220.27523" style="fill: #1f77b4; stroke: #ffffff; stroke-width: 0.75"/>
     <use xlink:href="#m9db81dba4a" x="385.493039" y="227.039786" style="fill: #1f77b4; stroke: #ffffff; stroke-width: 0.75"/>
     <use xlink:href="#m9db81dba4a" x="388.040015" y="367.218763" style="fill: #1f77b4; stroke: #ffffff; stroke-width: 0.75"/>
     <use xlink:href="#m9db81dba4a" x="390.586991" y="368.721723" style="fill: #1f77b4; stroke: #ffffff; stroke-width: 0.75"/>
     <use xlink:href="#m9db81dba4a" x="393.133967" y="236.416279" style="fill: #1f77b4; stroke: #ffffff; stroke-width: 0.75"/>
     <use xlink:href="#m9db81dba4a" x="395.680943" y="326.294565" style="fill: #1f77b4; stroke: #ffffff; stroke-width: 0.75"/>
     <use xlink:href="#m9db81dba4a" x="398.227919" y="354.288774" style="fill: #1f77b4; stroke: #ffffff; stroke-width: 0.75"/>
     <use xlink:href="#m9db81dba4a" x="400.774895" y="242.685152" style="fill: #1f77b4; stroke: #ffffff; stroke-width: 0.75"/>
     <use xlink:href="#m9db81dba4a" x="403.321871" y="335.790954" style="fill: #1f77b4; stroke: #ffffff; stroke-width: 0.75"/>
     <use xlink:href="#m9db81dba4a" x="405.868847" y="361.415415" style="fill: #1f77b4; stroke: #ffffff; stroke-width: 0.75"/>
     <use xlink:href="#m9db81dba4a" x="408.415824" y="367.112655" style="fill: #1f77b4; stroke: #ffffff; stroke-width: 0.75"/>
     <use xlink:href="#m9db81dba4a" x="410.9628" y="367.389837" style="fill: #1f77b4; stroke: #ffffff; stroke-width: 0.75"/>
     <use xlink:href="#m9db81dba4a" x="413.509776" y="368.0958" style="fill: #1f77b4; stroke: #ffffff; stroke-width: 0.75"/>
     <use xlink:href="#m9db81dba4a" x="416.056752" y="327.147522" style="fill: #1f77b4; stroke: #ffffff; stroke-width: 0.75"/>
     <use xlink:href="#m9db81dba4a" x="418.603728" y="255.267887" style="fill: #1f77b4; stroke: #ffffff; stroke-width: 0.75"/>
     <use xlink:href="#m9db81dba4a" x="421.150704" y="369.242011" style="fill: #1f77b4; stroke: #ffffff; stroke-width: 0.75"/>
     <use xlink:href="#m9db81dba4a" x="423.69768" y="369.274372" style="fill: #1f77b4; stroke: #ffffff; stroke-width: 0.75"/>
     <use xlink:href="#m9db81dba4a" x="426.244656" y="369.323282" style="fill: #1f77b4; stroke: #ffffff; stroke-width: 0.75"/>
     <use xlink:href="#m9db81dba4a" x="428.791632" y="366.966101" style="fill: #1f77b4; stroke: #ffffff; stroke-width: 0.75"/>
     <use xlink:href="#m9db81dba4a" x="431.338608" y="342.068633" style="fill: #1f77b4; stroke: #ffffff; stroke-width: 0.75"/>
     <use xlink:href="#m9db81dba4a" x="433.885584" y="245.006367" style="fill: #1f77b4; stroke: #ffffff; stroke-width: 0.75"/>
     <use xlink:href="#m9db81dba4a" x="436.43256" y="219.461265" style="fill: #1f77b4; stroke: #ffffff; stroke-width: 0.75"/>
     <use xlink:href="#m9db81dba4a" x="438.979536" y="368.664343" style="fill: #1f77b4; stroke: #ffffff; stroke-width: 0.75"/>
     <use xlink:href="#m9db81dba4a" x="441.526512" y="243.96351" style="fill: #1f77b4; stroke: #ffffff; stroke-width: 0.75"/>
     <use xlink:href="#m9db81dba4a" x="444.073488" y="367.207535" style="fill: #1f77b4; stroke: #ffffff; stroke-width: 0.75"/>
     <use xlink:href="#m9db81dba4a" x="446.620464" y="222.259596" style="fill: #1f77b4; stroke: #ffffff; stroke-width: 0.75"/>
     <use xlink:href="#m9db81dba4a" x="449.16744" y="334.003644" style="fill: #1f77b4; stroke: #ffffff; stroke-width: 0.75"/>
     <use xlink:href="#m9db81dba4a" x="451.714416" y="330.654283" style="fill: #1f77b4; stroke: #ffffff; stroke-width: 0.75"/>
     <use xlink:href="#m9db81dba4a" x="454.261392" y="353.375209" style="fill: #1f77b4; stroke: #ffffff; stroke-width: 0.75"/>
     <use xlink:href="#m9db81dba4a" x="456.808368" y="344.430274" style="fill: #1f77b4; stroke: #ffffff; stroke-width: 0.75"/>
     <use xlink:href="#m9db81dba4a" x="459.355344" y="218.809935" style="fill: #1f77b4; stroke: #ffffff; stroke-width: 0.75"/>
     <use xlink:href="#m9db81dba4a" x="461.90232" y="252.232725" style="fill: #1f77b4; stroke: #ffffff; stroke-width: 0.75"/>
     <use xlink:href="#m9db81dba4a" x="464.449296" y="346.300249" style="fill: #1f77b4; stroke: #ffffff; stroke-width: 0.75"/>
     <use xlink:href="#m9db81dba4a" x="466.996272" y="360.989887" style="fill: #1f77b4; stroke: #ffffff; stroke-width: 0.75"/>
     <use xlink:href="#m9db81dba4a" x="469.543248" y="336.257478" style="fill: #1f77b4; stroke: #ffffff; stroke-width: 0.75"/>
     <use xlink:href="#m9db81dba4a" x="472.090224" y="369.198734" style="fill: #1f77b4; stroke: #ffffff; stroke-width: 0.75"/>
     <use xlink:href="#m9db81dba4a" x="474.6372" y="218.276541" style="fill: #1f77b4; stroke: #ffffff; stroke-width: 0.75"/>
     <use xlink:href="#m9db81dba4a" x="477.184176" y="353.718261" style="fill: #1f77b4; stroke: #ffffff; stroke-width: 0.75"/>
     <use xlink:href="#m9db81dba4a" x="479.731153" y="227.841018" style="fill: #1f77b4; stroke: #ffffff; stroke-width: 0.75"/>
     <use xlink:href="#m9db81dba4a" x="482.278129" y="253.793548" style="fill: #1f77b4; stroke: #ffffff; stroke-width: 0.75"/>
     <use xlink:href="#m9db81dba4a" x="484.825105" y="238.680348" style="fill: #1f77b4; stroke: #ffffff; stroke-width: 0.75"/>
     <use xlink:href="#m9db81dba4a" x="487.372081" y="369.36" style="fill: #1f77b4; stroke: #ffffff; stroke-width: 0.75"/>
     <use xlink:href="#m9db81dba4a" x="489.919057" y="367.77336" style="fill: #1f77b4; stroke: #ffffff; stroke-width: 0.75"/>
     <use xlink:href="#m9db81dba4a" x="492.466033" y="232.295688" style="fill: #1f77b4; stroke: #ffffff; stroke-width: 0.75"/>
     <use xlink:href="#m9db81dba4a" x="495.013009" y="368.669682" style="fill: #1f77b4; stroke: #ffffff; stroke-width: 0.75"/>
     <use xlink:href="#m9db81dba4a" x="497.559985" y="218.640627" style="fill: #1f77b4; stroke: #ffffff; stroke-width: 0.75"/>
     <use xlink:href="#m9db81dba4a" x="500.106961" y="219.705639" style="fill: #1f77b4; stroke: #ffffff; stroke-width: 0.75"/>
     <use xlink:href="#m9db81dba4a" x="502.653937" y="218.272974" style="fill: #1f77b4; stroke: #ffffff; stroke-width: 0.75"/>
     <use xlink:href="#m9db81dba4a" x="505.200913" y="221.093391" style="fill: #1f77b4; stroke: #ffffff; stroke-width: 0.75"/>
     <use xlink:href="#m9db81dba4a" x="507.747889" y="367.766593" style="fill: #1f77b4; stroke: #ffffff; stroke-width: 0.75"/>
     <use xlink:href="#m9db81dba4a" x="510.294865" y="328.823991" style="fill: #1f77b4; stroke: #ffffff; stroke-width: 0.75"/>
     <use xlink:href="#m9db81dba4a" x="512.841841" y="322.262241" style="fill: #1f77b4; stroke: #ffffff; stroke-width: 0.75"/>
     <use xlink:href="#m9db81dba4a" x="515.388817" y="369.286704" style="fill: #1f77b4; stroke: #ffffff; stroke-width: 0.75"/>
     <use xlink:href="#m9db81dba4a" x="517.935793" y="245.824582" style="fill: #1f77b4; stroke: #ffffff; stroke-width: 0.75"/>
     <use xlink:href="#m9db81dba4a" x="520.482769" y="368.485703" style="fill: #1f77b4; stroke: #ffffff; stroke-width: 0.75"/>
     <use xlink:href="#m9db81dba4a" x="523.029745" y="368.304537" style="fill: #1f77b4; stroke: #ffffff; stroke-width: 0.75"/>
     <use xlink:href="#m9db81dba4a" x="525.576721" y="365.760655" style="fill: #1f77b4; stroke: #ffffff; stroke-width: 0.75"/>
     <use xlink:href="#m9db81dba4a" x="528.123697" y="223.390982" style="fill: #1f77b4; stroke: #ffffff; stroke-width: 0.75"/>
     <use xlink:href="#m9db81dba4a" x="530.670673" y="245.546792" style="fill: #1f77b4; stroke: #ffffff; stroke-width: 0.75"/>
     <use xlink:href="#m9db81dba4a" x="533.217649" y="219.073115" style="fill: #1f77b4; stroke: #ffffff; stroke-width: 0.75"/>
     <use xlink:href="#m9db81dba4a" x="535.764625" y="340.287253" style="fill: #1f77b4; stroke: #ffffff; stroke-width: 0.75"/>
     <use xlink:href="#m9db81dba4a" x="538.311601" y="368.839433" style="fill: #1f77b4; stroke: #ffffff; stroke-width: 0.75"/>
     <use xlink:href="#m9db81dba4a" x="540.858577" y="242.987176" style="fill: #1f77b4; stroke: #ffffff; stroke-width: 0.75"/>
     <use xlink:href="#m9db81dba4a" x="543.405553" y="369.022184" style="fill: #1f77b4; stroke: #ffffff; stroke-width: 0.75"/>
     <use xlink:href="#m9db81dba4a" x="545.952529" y="243.542124" style="fill: #1f77b4; stroke: #ffffff; stroke-width: 0.75"/>
     <use xlink:href="#m9db81dba4a" x="548.499506" y="218.832905" style="fill: #1f77b4; stroke: #ffffff; stroke-width: 0.75"/>
     <use xlink:href="#m9db81dba4a" x="551.046482" y="222.147544" style="fill: #1f77b4; stroke: #ffffff; stroke-width: 0.75"/>
     <use xlink:href="#m9db81dba4a" x="553.593458" y="236.480224" style="fill: #1f77b4; stroke: #ffffff; stroke-width: 0.75"/>
     <use xlink:href="#m9db81dba4a" x="556.140434" y="218.537295" style="fill: #1f77b4; stroke: #ffffff; stroke-width: 0.75"/>
     <use xlink:href="#m9db81dba4a" x="558.68741" y="368.788328" style="fill: #1f77b4; stroke: #ffffff; stroke-width: 0.75"/>
     <use xlink:href="#m9db81dba4a" x="561.234386" y="368.111466" style="fill: #1f77b4; stroke: #ffffff; stroke-width: 0.75"/>
     <use xlink:href="#m9db81dba4a" x="563.781362" y="368.715262" style="fill: #1f77b4; stroke: #ffffff; stroke-width: 0.75"/>
     <use xlink:href="#m9db81dba4a" x="566.328338" y="342.09315" style="fill: #1f77b4; stroke: #ffffff; stroke-width: 0.75"/>
     <use xlink:href="#m9db81dba4a" x="568.875314" y="368.336513" style="fill: #1f77b4; stroke: #ffffff; stroke-width: 0.75"/>
     <use xlink:href="#m9db81dba4a" x="571.42229" y="252.769817" style="fill: #1f77b4; stroke: #ffffff; stroke-width: 0.75"/>
     <use xlink:href="#m9db81dba4a" x="573.969266" y="242.867784" style="fill: #1f77b4; stroke: #ffffff; stroke-width: 0.75"/>
     <use xlink:href="#m9db81dba4a" x="576.516242" y="368.000562" style="fill: #1f77b4; stroke: #ffffff; stroke-width: 0.75"/>
     <use xlink:href="#m9db81dba4a" x="579.063218" y="368.803096" style="fill: #1f77b4; stroke: #ffffff; stroke-width: 0.75"/>
     <use xlink:href="#m9db81dba4a" x="581.610194" y="248.645808" style="fill: #1f77b4; stroke: #ffffff; stroke-width: 0.75"/>
     <use xlink:href="#m9db81dba4a" x="584.15717" y="254.297377" style="fill: #1f77b4; stroke: #ffffff; stroke-width: 0.75"/>
     <use xlink:href="#m9db81dba4a" x="586.704146" y="218.639272" style="fill: #1f77b4; stroke: #ffffff; stroke-width: 0.75"/>
     <use xlink:href="#m9db81dba4a" x="589.251122" y="218.320799" style="fill: #1f77b4; stroke: #ffffff; stroke-width: 0.75"/>
     <use xlink:href="#m9db81dba4a" x="591.798098" y="367.762056" style="fill: #1f77b4; stroke: #ffffff; stroke-width: 0.75"/>
     <use xlink:href="#m9db81dba4a" x="594.345074" y="367.526957" style="fill: #1f77b4; stroke: #ffffff; stroke-width: 0.75"/>
     <use xlink:href="#m9db81dba4a" x="596.89205" y="243.863384" style="fill: #1f77b4; stroke: #ffffff; stroke-width: 0.75"/>
     <use xlink:href="#m9db81dba4a" x="599.439026" y="219.035382" style="fill: #1f77b4; stroke: #ffffff; stroke-width: 0.75"/>
     <use xlink:href="#m9db81dba4a" x="601.986002" y="357.674787" style="fill: #1f77b4; stroke: #ffffff; stroke-width: 0.75"/>
     <use xlink:href="#m9db81dba4a" x="604.532978" y="276.291076" style="fill: #1f77b4; stroke: #ffffff; stroke-width: 0.75"/>
     <use xlink:href="#m9db81dba4a" x="607.079954" y="355.422683" style="fill: #1f77b4; stroke: #ffffff; stroke-width: 0.75"/>
     <use xlink:href="#m9db81dba4a" x="609.62693" y="218.468022" style="fill: #1f77b4; stroke: #ffffff; stroke-width: 0.75"/>
     <use xlink:href="#m9db81dba4a" x="612.173906" y="219.561555" style="fill: #1f77b4; stroke: #ffffff; stroke-width: 0.75"/>
     <use xlink:href="#m9db81dba4a" x="614.720882" y="354.920574" style="fill: #1f77b4; stroke: #ffffff; stroke-width: 0.75"/>
     <use xlink:href="#m9db81dba4a" x="617.267859" y="218.246091" style="fill: #1f77b4; stroke: #ffffff; stroke-width: 0.75"/>
     <use xlink:href="#m9db81dba4a" x="619.814835" y="369.263302" style="fill: #1f77b4; stroke: #ffffff; stroke-width: 0.75"/>
     <use xlink:href="#m9db81dba4a" x="622.361811" y="363.583392" style="fill: #1f77b4; stroke: #ffffff; stroke-width: 0.75"/>
     <use xlink:href="#m9db81dba4a" x="624.908787" y="334.128709" style="fill: #1f77b4; stroke: #ffffff; stroke-width: 0.75"/>
     <use xlink:href="#m9db81dba4a" x="627.455763" y="257.688812" style="fill: #1f77b4; stroke: #ffffff; stroke-width: 0.75"/>
     <use xlink:href="#m9db81dba4a" x="630.002739" y="348.190639" style="fill: #1f77b4; stroke: #ffffff; stroke-width: 0.75"/>
     <use xlink:href="#m9db81dba4a" x="632.549715" y="326.67711" style="fill: #1f77b4; stroke: #ffffff; stroke-width: 0.75"/>
     <use xlink:href="#m9db81dba4a" x="635.096691" y="369.266782" style="fill: #1f77b4; stroke: #ffffff; stroke-width: 0.75"/>
     <use xlink:href="#m9db81dba4a" x="637.643667" y="362.634857" style="fill: #1f77b4; stroke: #ffffff; stroke-width: 0.75"/>
     <use xlink:href="#m9db81dba4a" x="640.190643" y="347.407694" style="fill: #1f77b4; stroke: #ffffff; stroke-width: 0.75"/>
     <use xlink:href="#m9db81dba4a" x="642.737619" y="218.61085" style="fill: #1f77b4; stroke: #ffffff; stroke-width: 0.75"/>
     <use xlink:href="#m9db81dba4a" x="645.284595" y="362.437793" style="fill: #1f77b4; stroke: #ffffff; stroke-width: 0.75"/>
     <use xlink:href="#m9db81dba4a" x="647.831571" y="361.5383" style="fill: #1f77b4; stroke: #ffffff; stroke-width: 0.75"/>
     <use xlink:href="#m9db81dba4a" x="650.378547" y="297.740593" style="fill: #1f77b4; stroke: #ffffff; stroke-width: 0.75"/>
     <use xlink:href="#m9db81dba4a" x="652.925523" y="357.679468" style="fill: #1f77b4; stroke: #ffffff; stroke-width: 0.75"/>
     <use xlink:href="#m9db81dba4a" x="655.472499" y="219.116384" style="fill: #1f77b4; stroke: #ffffff; stroke-width: 0.75"/>
     <use xlink:href="#m9db81dba4a" x="658.019475" y="220.776336" style="fill: #1f77b4; stroke: #ffffff; stroke-width: 0.75"/>
     <use xlink:href="#m9db81dba4a" x="660.566451" y="218.176459" style="fill: #1f77b4; stroke: #ffffff; stroke-width: 0.75"/>
     <use xlink:href="#m9db81dba4a" x="663.113427" y="369.121736" style="fill: #1f77b4; stroke: #ffffff; stroke-width: 0.75"/>
     <use xlink:href="#m9db81dba4a" x="665.660403" y="361.209007" style="fill: #1f77b4; stroke: #ffffff; stroke-width: 0.75"/>
     <use xlink:href="#m9db81dba4a" x="668.207379" y="347.205132" style="fill: #1f77b4; stroke: #ffffff; stroke-width: 0.75"/>
     <use xlink:href="#m9db81dba4a" x="670.754355" y="219.080589" style="fill: #1f77b4; stroke: #ffffff; stroke-width: 0.75"/>
     <use xlink:href="#m9db81dba4a" x="673.301331" y="248.954625" style="fill: #1f77b4; stroke: #ffffff; stroke-width: 0.75"/>
     <use xlink:href="#m9db81dba4a" x="675.848307" y="369.025873" style="fill: #1f77b4; stroke: #ffffff; stroke-width: 0.75"/>
     <use xlink:href="#m9db81dba4a" x="678.395283" y="367.454382" style="fill: #1f77b4; stroke: #ffffff; stroke-width: 0.75"/>
     <use xlink:href="#m9db81dba4a" x="680.942259" y="362.810881" style="fill: #1f77b4; stroke: #ffffff; stroke-width: 0.75"/>
     <use xlink:href="#m9db81dba4a" x="683.489235" y="352.239187" style="fill: #1f77b4; stroke: #ffffff; stroke-width: 0.75"/>
     <use xlink:href="#m9db81dba4a" x="686.036211" y="218.398156" style="fill: #1f77b4; stroke: #ffffff; stroke-width: 0.75"/>
     <use xlink:href="#m9db81dba4a" x="688.583188" y="219.771996" style="fill: #1f77b4; stroke: #ffffff; stroke-width: 0.75"/>
     <use xlink:href="#m9db81dba4a" x="691.130164" y="218.389232" style="fill: #1f77b4; stroke: #ffffff; stroke-width: 0.75"/>
     <use xlink:href="#m9db81dba4a" x="693.67714" y="360.483847" style="fill: #1f77b4; stroke: #ffffff; stroke-width: 0.75"/>
     <use xlink:href="#m9db81dba4a" x="696.224116" y="368.952588" style="fill: #1f77b4; stroke: #ffffff; stroke-width: 0.75"/>
     <use xlink:href="#m9db81dba4a" x="698.771092" y="219.826986" style="fill: #1f77b4; stroke: #ffffff; stroke-width: 0.75"/>
     <use xlink:href="#m9db81dba4a" x="701.318068" y="368.675449" style="fill: #1f77b4; stroke: #ffffff; stroke-width: 0.75"/>
     <use xlink:href="#m9db81dba4a" x="703.865044" y="330.362907" style="fill: #1f77b4; stroke: #ffffff; stroke-width: 0.75"/>
     <use xlink:href="#m9db81dba4a" x="706.41202" y="218.264739" style="fill: #1f77b4; stroke: #ffffff; stroke-width: 0.75"/>
     <use xlink:href="#m9db81dba4a" x="708.958996" y="239.38521" style="fill: #1f77b4; stroke: #ffffff; stroke-width: 0.75"/>
     <use xlink:href="#m9db81dba4a" x="711.505972" y="219.62373" style="fill: #1f77b4; stroke: #ffffff; stroke-width: 0.75"/>
     <use xlink:href="#m9db81dba4a" x="714.052948" y="218.25798" style="fill: #1f77b4; stroke: #ffffff; stroke-width: 0.75"/>
     <use xlink:href="#m9db81dba4a" x="716.599924" y="314.911453" style="fill: #1f77b4; stroke: #ffffff; stroke-width: 0.75"/>
     <use xlink:href="#m9db81dba4a" x="719.1469" y="369.25921" style="fill: #1f77b4; stroke: #ffffff; stroke-width: 0.75"/>
     <use xlink:href="#m9db81dba4a" x="721.693876" y="220.853353" style="fill: #1f77b4; stroke: #ffffff; stroke-width: 0.75"/>
     <use xlink:href="#m9db81dba4a" x="724.240852" y="218.513898" style="fill: #1f77b4; stroke: #ffffff; stroke-width: 0.75"/>
     <use xlink:href="#m9db81dba4a" x="726.787828" y="249.941176" style="fill: #1f77b4; stroke: #ffffff; stroke-width: 0.75"/>
     <use xlink:href="#m9db81dba4a" x="729.334804" y="261.468484" style="fill: #1f77b4; stroke: #ffffff; stroke-width: 0.75"/>
     <use xlink:href="#m9db81dba4a" x="731.88178" y="307.797698" style="fill: #1f77b4; stroke: #ffffff; stroke-width: 0.75"/>
     <use xlink:href="#m9db81dba4a" x="734.428756" y="305.197985" style="fill: #1f77b4; stroke: #ffffff; stroke-width: 0.75"/>
     <use xlink:href="#m9db81dba4a" x="736.975732" y="367.743437" style="fill: #1f77b4; stroke: #ffffff; stroke-width: 0.75"/>
     <use xlink:href="#m9db81dba4a" x="739.522708" y="368.884658" style="fill: #1f77b4; stroke: #ffffff; stroke-width: 0.75"/>
     <use xlink:href="#m9db81dba4a" x="742.069684" y="218.35711" style="fill: #1f77b4; stroke: #ffffff; stroke-width: 0.75"/>
     <use xlink:href="#m9db81dba4a" x="744.61666" y="218.74399" style="fill: #1f77b4; stroke: #ffffff; stroke-width: 0.75"/>
     <use xlink:href="#m9db81dba4a" x="747.163636" y="228.159882" style="fill: #1f77b4; stroke: #ffffff; stroke-width: 0.75"/>
    </g>
   </g>
   <g id="line2d_17">
    <path d="M 138.436364 359.856497 
L 140.98334 218.483885 
L 143.530316 218.667549 
L 146.077292 323.107279 
L 148.624268 219.183591 
L 151.171244 218.426916 
L 153.71822 333.701699 
L 156.265196 232.89363 
L 158.812172 309.16908 
L 161.359148 225.088593 
L 163.906124 218.283345 
L 166.4531 361.168401 
L 169.000076 218.935143 
L 171.547052 240.355439 
L 174.094028 360.523388 
L 176.641004 218.993451 
L 179.18798 252.642233 
L 181.734956 266.64814 
L 184.281932 230.370688 
L 186.828908 368.98228 
L 189.375884 218.412249 
L 191.92286 218.200973 
L 194.469836 253.941624 
L 197.016812 367.704567 
L 199.563789 365.32088 
L 202.110765 364.834065 
L 204.657741 369.276988 
L 207.204717 277.362385 
L 209.751693 340.196667 
L 212.298669 277.855091 
L 214.845645 218.211091 
L 217.392621 265.286793 
L 219.939597 356.873473 
L 222.486573 260.875356 
L 225.033549 221.949313 
L 227.580525 369.241682 
L 230.127501 218.653458 
L 232.674477 363.761551 
L 235.221453 368.212132 
L 237.768429 220.761253 
L 240.315405 241.356422 
L 242.862381 269.217063 
L 245.409357 265.03065 
L 247.956333 368.872598 
L 250.503309 219.706424 
L 253.050285 218.891892 
L 255.597261 367.786764 
L 258.144237 252.924218 
L 260.691213 359.572694 
L 263.238189 222.087163 
L 265.785165 365.310579 
L 268.332141 218.791711 
L 270.879118 243.329851 
L 273.426094 242.896526 
L 275.97307 364.785303 
L 278.520046 367.746852 
L 281.067022 343.451414 
L 283.613998 218.57613 
L 286.160974 344.142223 
L 288.70795 219.319995 
" clip-path="url(#p30b4abaa82)" style="fill: none; stroke: #ff7f0e; stroke-width: 1.5; stroke-linecap: square"/>
    <defs>
     <path id="mf8344224ac" d="M 0 3 
C 0.795609 3 1.55874 2.683901 2.12132 2.12132 
C 2.683901 1.55874 3 0.795609 3 0 
C 3 -0.795609 2.683901 -1.55874 2.12132 -2.12132 
C 1.55874 -2.683901 0.795609 -3 0 -3 
C -0.795609 -3 -1.55874 -2.683901 -2.12132 -2.12132 
C -2.683901 -1.55874 -3 -0.795609 -3 0 
C -3 0.795609 -2.683901 1.55874 -2.12132 2.12132 
C -1.55874 2.683901 -0.795609 3 0 3 
z
" style="stroke: #ffffff; stroke-width: 0.75"/>
    </defs>
    <g clip-path="url(#p30b4abaa82)">
     <use xlink:href="#mf8344224ac" x="138.436364" y="359.856497" style="fill: #ff7f0e; stroke: #ffffff; stroke-width: 0.75"/>
     <use xlink:href="#mf8344224ac" x="140.98334" y="218.483885" style="fill: #ff7f0e; stroke: #ffffff; stroke-width: 0.75"/>
     <use xlink:href="#mf8344224ac" x="143.530316" y="218.667549" style="fill: #ff7f0e; stroke: #ffffff; stroke-width: 0.75"/>
     <use xlink:href="#mf8344224ac" x="146.077292" y="323.107279" style="fill: #ff7f0e; stroke: #ffffff; stroke-width: 0.75"/>
     <use xlink:href="#mf8344224ac" x="148.624268" y="219.183591" style="fill: #ff7f0e; stroke: #ffffff; stroke-width: 0.75"/>
     <use xlink:href="#mf8344224ac" x="151.171244" y="218.426916" style="fill: #ff7f0e; stroke: #ffffff; stroke-width: 0.75"/>
     <use xlink:href="#mf8344224ac" x="153.71822" y="333.701699" style="fill: #ff7f0e; stroke: #ffffff; stroke-width: 0.75"/>
     <use xlink:href="#mf8344224ac" x="156.265196" y="232.89363" style="fill: #ff7f0e; stroke: #ffffff; stroke-width: 0.75"/>
     <use xlink:href="#mf8344224ac" x="158.812172" y="309.16908" style="fill: #ff7f0e; stroke: #ffffff; stroke-width: 0.75"/>
     <use xlink:href="#mf8344224ac" x="161.359148" y="225.088593" style="fill: #ff7f0e; stroke: #ffffff; stroke-width: 0.75"/>
     <use xlink:href="#mf8344224ac" x="163.906124" y="218.283345" style="fill: #ff7f0e; stroke: #ffffff; stroke-width: 0.75"/>
     <use xlink:href="#mf8344224ac" x="166.4531" y="361.168401" style="fill: #ff7f0e; stroke: #ffffff; stroke-width: 0.75"/>
     <use xlink:href="#mf8344224ac" x="169.000076" y="218.935143" style="fill: #ff7f0e; stroke: #ffffff; stroke-width: 0.75"/>
     <use xlink:href="#mf8344224ac" x="171.547052" y="240.355439" style="fill: #ff7f0e; stroke: #ffffff; stroke-width: 0.75"/>
     <use xlink:href="#mf8344224ac" x="174.094028" y="360.523388" style="fill: #ff7f0e; stroke: #ffffff; stroke-width: 0.75"/>
     <use xlink:href="#mf8344224ac" x="176.641004" y="218.993451" style="fill: #ff7f0e; stroke: #ffffff; stroke-width: 0.75"/>
     <use xlink:href="#mf8344224ac" x="179.18798" y="252.642233" style="fill: #ff7f0e; stroke: #ffffff; stroke-width: 0.75"/>
     <use xlink:href="#mf8344224ac" x="181.734956" y="266.64814" style="fill: #ff7f0e; stroke: #ffffff; stroke-width: 0.75"/>
     <use xlink:href="#mf8344224ac" x="184.281932" y="230.370688" style="fill: #ff7f0e; stroke: #ffffff; stroke-width: 0.75"/>
     <use xlink:href="#mf8344224ac" x="186.828908" y="368.98228" style="fill: #ff7f0e; stroke: #ffffff; stroke-width: 0.75"/>
     <use xlink:href="#mf8344224ac" x="189.375884" y="218.412249" style="fill: #ff7f0e; stroke: #ffffff; stroke-width: 0.75"/>
     <use xlink:href="#mf8344224ac" x="191.92286" y="218.200973" style="fill: #ff7f0e; stroke: #ffffff; stroke-width: 0.75"/>
     <use xlink:href="#mf8344224ac" x="194.469836" y="253.941624" style="fill: #ff7f0e; stroke: #ffffff; stroke-width: 0.75"/>
     <use xlink:href="#mf8344224ac" x="197.016812" y="367.704567" style="fill: #ff7f0e; stroke: #ffffff; stroke-width: 0.75"/>
     <use xlink:href="#mf8344224ac" x="199.563789" y="365.32088" style="fill: #ff7f0e; stroke: #ffffff; stroke-width: 0.75"/>
     <use xlink:href="#mf8344224ac" x="202.110765" y="364.834065" style="fill: #ff7f0e; stroke: #ffffff; stroke-width: 0.75"/>
     <use xlink:href="#mf8344224ac" x="204.657741" y="369.276988" style="fill: #ff7f0e; stroke: #ffffff; stroke-width: 0.75"/>
     <use xlink:href="#mf8344224ac" x="207.204717" y="277.362385" style="fill: #ff7f0e; stroke: #ffffff; stroke-width: 0.75"/>
     <use xlink:href="#mf8344224ac" x="209.751693" y="340.196667" style="fill: #ff7f0e; stroke: #ffffff; stroke-width: 0.75"/>
     <use xlink:href="#mf8344224ac" x="212.298669" y="277.855091" style="fill: #ff7f0e; stroke: #ffffff; stroke-width: 0.75"/>
     <use xlink:href="#mf8344224ac" x="214.845645" y="218.211091" style="fill: #ff7f0e; stroke: #ffffff; stroke-width: 0.75"/>
     <use xlink:href="#mf8344224ac" x="217.392621" y="265.286793" style="fill: #ff7f0e; stroke: #ffffff; stroke-width: 0.75"/>
     <use xlink:href="#mf8344224ac" x="219.939597" y="356.873473" style="fill: #ff7f0e; stroke: #ffffff; stroke-width: 0.75"/>
     <use xlink:href="#mf8344224ac" x="222.486573" y="260.875356" style="fill: #ff7f0e; stroke: #ffffff; stroke-width: 0.75"/>
     <use xlink:href="#mf8344224ac" x="225.033549" y="221.949313" style="fill: #ff7f0e; stroke: #ffffff; stroke-width: 0.75"/>
     <use xlink:href="#mf8344224ac" x="227.580525" y="369.241682" style="fill: #ff7f0e; stroke: #ffffff; stroke-width: 0.75"/>
     <use xlink:href="#mf8344224ac" x="230.127501" y="218.653458" style="fill: #ff7f0e; stroke: #ffffff; stroke-width: 0.75"/>
     <use xlink:href="#mf8344224ac" x="232.674477" y="363.761551" style="fill: #ff7f0e; stroke: #ffffff; stroke-width: 0.75"/>
     <use xlink:href="#mf8344224ac" x="235.221453" y="368.212132" style="fill: #ff7f0e; stroke: #ffffff; stroke-width: 0.75"/>
     <use xlink:href="#mf8344224ac" x="237.768429" y="220.761253" style="fill: #ff7f0e; stroke: #ffffff; stroke-width: 0.75"/>
     <use xlink:href="#mf8344224ac" x="240.315405" y="241.356422" style="fill: #ff7f0e; stroke: #ffffff; stroke-width: 0.75"/>
     <use xlink:href="#mf8344224ac" x="242.862381" y="269.217063" style="fill: #ff7f0e; stroke: #ffffff; stroke-width: 0.75"/>
     <use xlink:href="#mf8344224ac" x="245.409357" y="265.03065" style="fill: #ff7f0e; stroke: #ffffff; stroke-width: 0.75"/>
     <use xlink:href="#mf8344224ac" x="247.956333" y="368.872598" style="fill: #ff7f0e; stroke: #ffffff; stroke-width: 0.75"/>
     <use xlink:href="#mf8344224ac" x="250.503309" y="219.706424" style="fill: #ff7f0e; stroke: #ffffff; stroke-width: 0.75"/>
     <use xlink:href="#mf8344224ac" x="253.050285" y="218.891892" style="fill: #ff7f0e; stroke: #ffffff; stroke-width: 0.75"/>
     <use xlink:href="#mf8344224ac" x="255.597261" y="367.786764" style="fill: #ff7f0e; stroke: #ffffff; stroke-width: 0.75"/>
     <use xlink:href="#mf8344224ac" x="258.144237" y="252.924218" style="fill: #ff7f0e; stroke: #ffffff; stroke-width: 0.75"/>
     <use xlink:href="#mf8344224ac" x="260.691213" y="359.572694" style="fill: #ff7f0e; stroke: #ffffff; stroke-width: 0.75"/>
     <use xlink:href="#mf8344224ac" x="263.238189" y="222.087163" style="fill: #ff7f0e; stroke: #ffffff; stroke-width: 0.75"/>
     <use xlink:href="#mf8344224ac" x="265.785165" y="365.310579" style="fill: #ff7f0e; stroke: #ffffff; stroke-width: 0.75"/>
     <use xlink:href="#mf8344224ac" x="268.332141" y="218.791711" style="fill: #ff7f0e; stroke: #ffffff; stroke-width: 0.75"/>
     <use xlink:href="#mf8344224ac" x="270.879118" y="243.329851" style="fill: #ff7f0e; stroke: #ffffff; stroke-width: 0.75"/>
     <use xlink:href="#mf8344224ac" x="273.426094" y="242.896526" style="fill: #ff7f0e; stroke: #ffffff; stroke-width: 0.75"/>
     <use xlink:href="#mf8344224ac" x="275.97307" y="364.785303" style="fill: #ff7f0e; stroke: #ffffff; stroke-width: 0.75"/>
     <use xlink:href="#mf8344224ac" x="278.520046" y="367.746852" style="fill: #ff7f0e; stroke: #ffffff; stroke-width: 0.75"/>
     <use xlink:href="#mf8344224ac" x="281.067022" y="343.451414" style="fill: #ff7f0e; stroke: #ffffff; stroke-width: 0.75"/>
     <use xlink:href="#mf8344224ac" x="283.613998" y="218.57613" style="fill: #ff7f0e; stroke: #ffffff; stroke-width: 0.75"/>
     <use xlink:href="#mf8344224ac" x="286.160974" y="344.142223" style="fill: #ff7f0e; stroke: #ffffff; stroke-width: 0.75"/>
     <use xlink:href="#mf8344224ac" x="288.70795" y="219.319995" style="fill: #ff7f0e; stroke: #ffffff; stroke-width: 0.75"/>
    </g>
   </g>
   <g id="line2d_18"/>
   <g id="line2d_19"/>
   <g id="line2d_20">
    <path d="M 138.436364 218.163967 
L 140.98334 66.96 
L 143.530316 218.163967 
L 148.624268 218.163967 
L 151.171244 66.96 
L 153.71822 218.163967 
L 156.265196 66.96 
L 158.812172 66.96 
L 161.359148 218.163967 
L 163.906124 66.96 
L 166.4531 218.163967 
L 169.000076 66.96 
L 171.547052 66.96 
L 174.094028 218.163967 
L 176.641004 66.96 
L 179.18798 66.96 
L 181.734956 218.163967 
L 184.281932 66.96 
L 191.92286 66.96 
L 194.469836 218.163967 
L 197.016812 66.96 
L 199.563789 66.96 
L 202.110765 218.163967 
L 204.657741 218.163967 
L 207.204717 66.96 
L 209.751693 218.163967 
L 212.298669 66.96 
L 214.845645 66.96 
L 217.392621 218.163967 
L 222.486573 218.163967 
L 225.033549 66.96 
L 227.580525 66.96 
L 230.127501 218.163967 
L 240.315405 218.163967 
L 242.862381 66.96 
L 245.409357 66.96 
L 247.956333 218.163967 
L 250.503309 218.163967 
L 253.050285 66.96 
L 255.597261 218.163967 
L 258.144237 218.163967 
L 260.691213 66.96 
L 265.785165 66.96 
L 268.332141 218.163967 
L 281.067022 218.163967 
L 283.613998 66.96 
L 286.160974 218.163967 
L 288.70795 66.96 
L 291.254926 218.163967 
L 293.801902 66.96 
L 296.348878 218.163967 
L 303.989806 218.163967 
L 306.536782 66.96 
L 309.083758 66.96 
L 311.630734 218.163967 
L 314.17771 66.96 
L 316.724686 218.163967 
L 319.271662 66.96 
L 321.818638 66.96 
L 324.365614 218.163967 
L 326.91259 66.96 
L 329.459566 218.163967 
L 332.006542 218.163967 
L 334.553518 66.96 
L 337.100494 218.163967 
L 339.647471 66.96 
L 342.194447 218.163967 
L 349.835375 218.163967 
L 352.382351 66.96 
L 354.929327 218.163967 
L 357.476303 66.96 
L 360.023279 66.96 
L 362.570255 218.163967 
L 365.117231 66.96 
L 367.664207 218.163967 
L 370.211183 66.96 
L 377.852111 66.96 
L 380.399087 218.163967 
L 382.946063 66.96 
L 385.493039 66.96 
L 388.040015 218.163967 
L 390.586991 218.163967 
L 393.133967 66.96 
L 395.680943 218.163967 
L 398.227919 218.163967 
L 400.774895 66.96 
L 403.321871 218.163967 
L 416.056752 218.163967 
L 418.603728 66.96 
L 421.150704 218.163967 
L 428.791632 218.163967 
L 431.338608 66.96 
L 436.43256 66.96 
L 438.979536 218.163967 
L 441.526512 66.96 
L 444.073488 218.163967 
L 446.620464 66.96 
L 449.16744 218.163967 
L 456.808368 218.163967 
L 459.355344 66.96 
L 461.90232 66.96 
L 464.449296 218.163967 
L 472.090224 218.163967 
L 474.6372 66.96 
L 477.184176 218.163967 
L 479.731153 66.96 
L 482.278129 218.163967 
L 484.825105 66.96 
L 487.372081 218.163967 
L 489.919057 218.163967 
L 492.466033 66.96 
L 495.013009 218.163967 
L 497.559985 66.96 
L 505.200913 66.96 
L 507.747889 218.163967 
L 515.388817 218.163967 
L 517.935793 66.96 
L 520.482769 218.163967 
L 525.576721 218.163967 
L 528.123697 66.96 
L 533.217649 66.96 
L 535.764625 218.163967 
L 538.311601 218.163967 
L 540.858577 66.96 
L 543.405553 218.163967 
L 545.952529 66.96 
L 556.140434 66.96 
L 558.68741 218.163967 
L 568.875314 218.163967 
L 571.42229 66.96 
L 573.969266 66.96 
L 576.516242 218.163967 
L 579.063218 218.163967 
L 581.610194 66.96 
L 589.251122 66.96 
L 591.798098 218.163967 
L 594.345074 218.163967 
L 596.89205 66.96 
L 599.439026 66.96 
L 601.986002 218.163967 
L 604.532978 66.96 
L 607.079954 218.163967 
L 609.62693 66.96 
L 612.173906 66.96 
L 614.720882 218.163967 
L 617.267859 66.96 
L 619.814835 218.163967 
L 624.908787 218.163967 
L 627.455763 66.96 
L 630.002739 218.163967 
L 640.190643 218.163967 
L 642.737619 66.96 
L 645.284595 218.163967 
L 647.831571 218.163967 
L 650.378547 66.96 
L 652.925523 218.163967 
L 655.472499 66.96 
L 660.566451 66.96 
L 663.113427 218.163967 
L 668.207379 218.163967 
L 670.754355 66.96 
L 673.301331 66.96 
L 675.848307 218.163967 
L 683.489235 218.163967 
L 686.036211 66.96 
L 691.130164 66.96 
L 693.67714 218.163967 
L 696.224116 218.163967 
L 698.771092 66.96 
L 701.318068 218.163967 
L 703.865044 218.163967 
L 706.41202 66.96 
L 716.599924 66.96 
L 719.1469 218.163967 
L 721.693876 66.96 
L 726.787828 66.96 
L 729.334804 218.163967 
L 731.88178 218.163967 
L 734.428756 66.96 
L 736.975732 218.163967 
L 739.522708 218.163967 
L 742.069684 66.96 
L 747.163636 66.96 
L 747.163636 66.96 
" clip-path="url(#p30b4abaa82)" style="fill: none; stroke-dasharray: 5.55,2.4; stroke-dashoffset: 0; stroke: #1f77b4; stroke-width: 1.5"/>
   </g>
   <g id="line2d_21">
    <path d="M 138.436364 218.163967 
L 140.98334 66.96 
L 143.530316 66.96 
L 146.077292 218.163967 
L 148.624268 66.96 
L 151.171244 66.96 
L 153.71822 218.163967 
L 156.265196 218.163967 
L 158.812172 66.96 
L 161.359148 66.96 
L 163.906124 66.96 
L 166.4531 218.163967 
L 169.000076 66.96 
L 171.547052 66.96 
L 174.094028 218.163967 
L 176.641004 66.96 
L 179.18798 218.163967 
L 181.734956 218.163967 
L 184.281932 66.96 
L 186.828908 218.163967 
L 189.375884 66.96 
L 191.92286 66.96 
L 194.469836 66.96 
L 197.016812 218.163967 
L 199.563789 218.163967 
L 202.110765 218.163967 
L 204.657741 218.163967 
L 207.204717 66.96 
L 209.751693 218.163967 
L 212.298669 218.163967 
L 214.845645 66.96 
L 217.392621 218.163967 
L 219.939597 218.163967 
L 222.486573 66.96 
L 225.033549 66.96 
L 227.580525 218.163967 
L 230.127501 66.96 
L 232.674477 218.163967 
L 235.221453 218.163967 
L 237.768429 66.96 
L 240.315405 218.163967 
L 242.862381 66.96 
L 245.409357 66.96 
L 247.956333 218.163967 
L 250.503309 66.96 
L 253.050285 66.96 
L 255.597261 218.163967 
L 258.144237 218.163967 
L 260.691213 218.163967 
L 263.238189 66.96 
L 265.785165 218.163967 
L 268.332141 66.96 
L 270.879118 66.96 
L 273.426094 66.96 
L 275.97307 218.163967 
L 278.520046 218.163967 
L 281.067022 66.96 
L 283.613998 66.96 
L 286.160974 218.163967 
L 288.70795 66.96 
" clip-path="url(#p30b4abaa82)" style="fill: none; stroke-dasharray: 5.55,2.4; stroke-dashoffset: 0; stroke: #ff7f0e; stroke-width: 1.5"/>
   </g>
   <g id="line2d_22"/>
   <g id="line2d_23"/>
   <g id="patch_3">
    <path d="M 108 384.48 
L 108 51.84 
" style="fill: none; stroke: #000000; stroke-width: 0.8; stroke-linejoin: miter; stroke-linecap: square"/>
   </g>
   <g id="patch_4">
    <path d="M 777.6 384.48 
L 777.6 51.84 
" style="fill: none; stroke: #000000; stroke-width: 0.8; stroke-linejoin: miter; stroke-linecap: square"/>
   </g>
   <g id="patch_5">
    <path d="M 108 384.48 
L 777.6 384.48 
" style="fill: none; stroke: #000000; stroke-width: 0.8; stroke-linejoin: miter; stroke-linecap: square"/>
   </g>
   <g id="patch_6">
    <path d="M 108 51.84 
L 777.6 51.84 
" style="fill: none; stroke: #000000; stroke-width: 0.8; stroke-linejoin: miter; stroke-linecap: square"/>
   </g>
   <g id="text_18">
    <!-- Predicted Probabilities vs Actual Values during Training and Testing Phases -->
    <g transform="translate(219.3 45.84) scale(0.12 -0.12)">
     <defs>
      <path id="DejaVuSans-63" d="M 3122 3366 
L 3122 2828 
Q 2878 2963 2633 3030 
Q 2388 3097 2138 3097 
Q 1578 3097 1268 2742 
Q 959 2388 959 1747 
Q 959 1106 1268 751 
Q 1578 397 2138 397 
Q 2388 397 2633 464 
Q 2878 531 3122 666 
L 3122 134 
Q 2881 22 2623 -34 
Q 2366 -91 2075 -91 
Q 1284 -91 818 406 
Q 353 903 353 1747 
Q 353 2603 823 3093 
Q 1294 3584 2113 3584 
Q 2378 3584 2631 3529 
Q 2884 3475 3122 3366 
z
" transform="scale(0.015625)"/>
      <path id="DejaVuSans-73" d="M 2834 3397 
L 2834 2853 
Q 2591 2978 2328 3040 
Q 2066 3103 1784 3103 
Q 1356 3103 1142 2972 
Q 928 2841 928 2578 
Q 928 2378 1081 2264 
Q 1234 2150 1697 2047 
L 1894 2003 
Q 2506 1872 2764 1633 
Q 3022 1394 3022 966 
Q 3022 478 2636 193 
Q 2250 -91 1575 -91 
Q 1294 -91 989 -36 
Q 684 19 347 128 
L 347 722 
Q 666 556 975 473 
Q 1284 391 1588 391 
Q 1994 391 2212 530 
Q 2431 669 2431 922 
Q 2431 1156 2273 1281 
Q 2116 1406 1581 1522 
L 1381 1569 
Q 847 1681 609 1914 
Q 372 2147 372 2553 
Q 372 3047 722 3315 
Q 1072 3584 1716 3584 
Q 2034 3584 2315 3537 
Q 2597 3491 2834 3397 
z
" transform="scale(0.015625)"/>
      <path id="DejaVuSans-76" d="M 191 3500 
L 800 3500 
L 1894 563 
L 2988 3500 
L 3597 3500 
L 2284 0 
L 1503 0 
L 191 3500 
z
" transform="scale(0.015625)"/>
      <path id="DejaVuSans-41" d="M 2188 4044 
L 1331 1722 
L 3047 1722 
L 2188 4044 
z
M 1831 4666 
L 2547 4666 
L 4325 0 
L 3669 0 
L 3244 1197 
L 1141 1197 
L 716 0 
L 50 0 
L 1831 4666 
z
" transform="scale(0.015625)"/>
      <path id="DejaVuSans-75" d="M 544 1381 
L 544 3500 
L 1119 3500 
L 1119 1403 
Q 1119 906 1312 657 
Q 1506 409 1894 409 
Q 2359 409 2629 706 
Q 2900 1003 2900 1516 
L 2900 3500 
L 3475 3500 
L 3475 0 
L 2900 0 
L 2900 538 
Q 2691 219 2414 64 
Q 2138 -91 1772 -91 
Q 1169 -91 856 284 
Q 544 659 544 1381 
z
M 1991 3584 
L 1991 3584 
z
" transform="scale(0.015625)"/>
      <path id="DejaVuSans-56" d="M 1831 0 
L 50 4666 
L 709 4666 
L 2188 738 
L 3669 4666 
L 4325 4666 
L 2547 0 
L 1831 0 
z
" transform="scale(0.015625)"/>
      <path id="DejaVuSans-67" d="M 2906 1791 
Q 2906 2416 2648 2759 
Q 2391 3103 1925 3103 
Q 1463 3103 1205 2759 
Q 947 2416 947 1791 
Q 947 1169 1205 825 
Q 1463 481 1925 481 
Q 2391 481 2648 825 
Q 2906 1169 2906 1791 
z
M 3481 434 
Q 3481 -459 3084 -895 
Q 2688 -1331 1869 -1331 
Q 1566 -1331 1297 -1286 
Q 1028 -1241 775 -1147 
L 775 -588 
Q 1028 -725 1275 -790 
Q 1522 -856 1778 -856 
Q 2344 -856 2625 -561 
Q 2906 -266 2906 331 
L 2906 616 
Q 2728 306 2450 153 
Q 2172 0 1784 0 
Q 1141 0 747 490 
Q 353 981 353 1791 
Q 353 2603 747 3093 
Q 1141 3584 1784 3584 
Q 2172 3584 2450 3431 
Q 2728 3278 2906 2969 
L 2906 3500 
L 3481 3500 
L 3481 434 
z
" transform="scale(0.015625)"/>
      <path id="DejaVuSans-54" d="M -19 4666 
L 3928 4666 
L 3928 4134 
L 2272 4134 
L 2272 0 
L 1638 0 
L 1638 4134 
L -19 4134 
L -19 4666 
z
" transform="scale(0.015625)"/>
      <path id="DejaVuSans-68" d="M 3513 2113 
L 3513 0 
L 2938 0 
L 2938 2094 
Q 2938 2591 2744 2837 
Q 2550 3084 2163 3084 
Q 1697 3084 1428 2787 
Q 1159 2491 1159 1978 
L 1159 0 
L 581 0 
L 581 4863 
L 1159 4863 
L 1159 2956 
Q 1366 3272 1645 3428 
Q 1925 3584 2291 3584 
Q 2894 3584 3203 3211 
Q 3513 2838 3513 2113 
z
" transform="scale(0.015625)"/>
     </defs>
     <use xlink:href="#DejaVuSans-50"/>
     <use xlink:href="#DejaVuSans-72" x="58.552734"/>
     <use xlink:href="#DejaVuSans-65" x="97.416016"/>
     <use xlink:href="#DejaVuSans-64" x="158.939453"/>
     <use xlink:href="#DejaVuSans-69" x="222.416016"/>
     <use xlink:href="#DejaVuSans-63" x="250.199219"/>
     <use xlink:href="#DejaVuSans-74" x="305.179688"/>
     <use xlink:href="#DejaVuSans-65" x="344.388672"/>
     <use xlink:href="#DejaVuSans-64" x="405.912109"/>
     <use xlink:href="#DejaVuSans-20" x="469.388672"/>
     <use xlink:href="#DejaVuSans-50" x="501.175781"/>
     <use xlink:href="#DejaVuSans-72" x="559.728516"/>
     <use xlink:href="#DejaVuSans-6f" x="598.591797"/>
     <use xlink:href="#DejaVuSans-62" x="659.773438"/>
     <use xlink:href="#DejaVuSans-61" x="723.25"/>
     <use xlink:href="#DejaVuSans-62" x="784.529297"/>
     <use xlink:href="#DejaVuSans-69" x="848.005859"/>
     <use xlink:href="#DejaVuSans-6c" x="875.789062"/>
     <use xlink:href="#DejaVuSans-69" x="903.572266"/>
     <use xlink:href="#DejaVuSans-74" x="931.355469"/>
     <use xlink:href="#DejaVuSans-69" x="970.564453"/>
     <use xlink:href="#DejaVuSans-65" x="998.347656"/>
     <use xlink:href="#DejaVuSans-73" x="1059.871094"/>
     <use xlink:href="#DejaVuSans-20" x="1111.970703"/>
     <use xlink:href="#DejaVuSans-76" x="1143.757812"/>
     <use xlink:href="#DejaVuSans-73" x="1202.9375"/>
     <use xlink:href="#DejaVuSans-20" x="1255.037109"/>
     <use xlink:href="#DejaVuSans-41" x="1286.824219"/>
     <use xlink:href="#DejaVuSans-63" x="1353.482422"/>
     <use xlink:href="#DejaVuSans-74" x="1408.462891"/>
     <use xlink:href="#DejaVuSans-75" x="1447.671875"/>
     <use xlink:href="#DejaVuSans-61" x="1511.050781"/>
     <use xlink:href="#DejaVuSans-6c" x="1572.330078"/>
     <use xlink:href="#DejaVuSans-20" x="1600.113281"/>
     <use xlink:href="#DejaVuSans-56" x="1631.900391"/>
     <use xlink:href="#DejaVuSans-61" x="1692.558594"/>
     <use xlink:href="#DejaVuSans-6c" x="1753.837891"/>
     <use xlink:href="#DejaVuSans-75" x="1781.621094"/>
     <use xlink:href="#DejaVuSans-65" x="1845"/>
     <use xlink:href="#DejaVuSans-73" x="1906.523438"/>
     <use xlink:href="#DejaVuSans-20" x="1958.623047"/>
     <use xlink:href="#DejaVuSans-64" x="1990.410156"/>
     <use xlink:href="#DejaVuSans-75" x="2053.886719"/>
     <use xlink:href="#DejaVuSans-72" x="2117.265625"/>
     <use xlink:href="#DejaVuSans-69" x="2158.378906"/>
     <use xlink:href="#DejaVuSans-6e" x="2186.162109"/>
     <use xlink:href="#DejaVuSans-67" x="2249.541016"/>
     <use xlink:href="#DejaVuSans-20" x="2313.017578"/>
     <use xlink:href="#DejaVuSans-54" x="2344.804688"/>
     <use xlink:href="#DejaVuSans-72" x="2391.138672"/>
     <use xlink:href="#DejaVuSans-61" x="2432.251953"/>
     <use xlink:href="#DejaVuSans-69" x="2493.53125"/>
     <use xlink:href="#DejaVuSans-6e" x="2521.314453"/>
     <use xlink:href="#DejaVuSans-69" x="2584.693359"/>
     <use xlink:href="#DejaVuSans-6e" x="2612.476562"/>
     <use xlink:href="#DejaVuSans-67" x="2675.855469"/>
     <use xlink:href="#DejaVuSans-20" x="2739.332031"/>
     <use xlink:href="#DejaVuSans-61" x="2771.119141"/>
     <use xlink:href="#DejaVuSans-6e" x="2832.398438"/>
     <use xlink:href="#DejaVuSans-64" x="2895.777344"/>
     <use xlink:href="#DejaVuSans-20" x="2959.253906"/>
     <use xlink:href="#DejaVuSans-54" x="2991.041016"/>
     <use xlink:href="#DejaVuSans-65" x="3035.125"/>
     <use xlink:href="#DejaVuSans-73" x="3096.648438"/>
     <use xlink:href="#DejaVuSans-74" x="3148.748047"/>
     <use xlink:href="#DejaVuSans-69" x="3187.957031"/>
     <use xlink:href="#DejaVuSans-6e" x="3215.740234"/>
     <use xlink:href="#DejaVuSans-67" x="3279.119141"/>
     <use xlink:href="#DejaVuSans-20" x="3342.595703"/>
     <use xlink:href="#DejaVuSans-50" x="3374.382812"/>
     <use xlink:href="#DejaVuSans-68" x="3434.685547"/>
     <use xlink:href="#DejaVuSans-61" x="3498.064453"/>
     <use xlink:href="#DejaVuSans-73" x="3559.34375"/>
     <use xlink:href="#DejaVuSans-65" x="3611.443359"/>
     <use xlink:href="#DejaVuSans-73" x="3672.966797"/>
    </g>
   </g>
   <g id="legend_1">
    <g id="patch_7">
     <path d="M 699.148438 379.48 
L 770.6 379.48 
Q 772.6 379.48 772.6 377.48 
L 772.6 305.089375 
Q 772.6 303.089375 770.6 303.089375 
L 699.148438 303.089375 
Q 697.148438 303.089375 697.148438 305.089375 
L 697.148438 377.48 
Q 697.148438 379.48 699.148438 379.48 
z
" style="fill: #ffffff; opacity: 0.8; stroke: #cccccc; stroke-linejoin: miter"/>
    </g>
    <g id="text_19">
     <!-- Phase -->
     <g transform="translate(719.945312 314.687813) scale(0.1 -0.1)">
      <use xlink:href="#DejaVuSans-50"/>
      <use xlink:href="#DejaVuSans-68" x="60.302734"/>
      <use xlink:href="#DejaVuSans-61" x="123.681641"/>
      <use xlink:href="#DejaVuSans-73" x="184.960938"/>
      <use xlink:href="#DejaVuSans-65" x="237.060547"/>
     </g>
    </g>
    <g id="line2d_24">
     <path d="M 701.148438 325.865937 
L 711.148438 325.865937 
L 721.148438 325.865937 
" style="fill: none; stroke: #1f77b4; stroke-width: 1.5; stroke-linecap: square"/>
     <g>
      <use xlink:href="#m9db81dba4a" x="711.148438" y="325.865937" style="fill: #1f77b4; stroke: #ffffff; stroke-width: 0.75"/>
     </g>
    </g>
    <g id="text_20">
     <!-- Training -->
     <g transform="translate(729.148438 329.365937) scale(0.1 -0.1)">
      <use xlink:href="#DejaVuSans-54"/>
      <use xlink:href="#DejaVuSans-72" x="46.333984"/>
      <use xlink:href="#DejaVuSans-61" x="87.447266"/>
      <use xlink:href="#DejaVuSans-69" x="148.726562"/>
      <use xlink:href="#DejaVuSans-6e" x="176.509766"/>
      <use xlink:href="#DejaVuSans-69" x="239.888672"/>
      <use xlink:href="#DejaVuSans-6e" x="267.671875"/>
      <use xlink:href="#DejaVuSans-67" x="331.050781"/>
     </g>
    </g>
    <g id="line2d_25">
     <path d="M 701.148438 340.544062 
L 711.148438 340.544062 
L 721.148438 340.544062 
" style="fill: none; stroke: #ff7f0e; stroke-width: 1.5; stroke-linecap: square"/>
     <g>
      <use xlink:href="#mf8344224ac" x="711.148438" y="340.544062" style="fill: #ff7f0e; stroke: #ffffff; stroke-width: 0.75"/>
     </g>
    </g>
    <g id="text_21">
     <!-- Testing -->
     <g transform="translate(729.148438 344.044062) scale(0.1 -0.1)">
      <use xlink:href="#DejaVuSans-54"/>
      <use xlink:href="#DejaVuSans-65" x="44.083984"/>
      <use xlink:href="#DejaVuSans-73" x="105.607422"/>
      <use xlink:href="#DejaVuSans-74" x="157.707031"/>
      <use xlink:href="#DejaVuSans-69" x="196.916016"/>
      <use xlink:href="#DejaVuSans-6e" x="224.699219"/>
      <use xlink:href="#DejaVuSans-67" x="288.078125"/>
     </g>
    </g>
    <g id="line2d_26">
     <path d="M 701.148438 355.222188 
L 711.148438 355.222188 
L 721.148438 355.222188 
" style="fill: none; stroke-dasharray: 5.55,2.4; stroke-dashoffset: 0; stroke: #1f77b4; stroke-width: 1.5"/>
    </g>
    <g id="text_22">
     <!-- Training -->
     <g transform="translate(729.148438 358.722188) scale(0.1 -0.1)">
      <use xlink:href="#DejaVuSans-54"/>
      <use xlink:href="#DejaVuSans-72" x="46.333984"/>
      <use xlink:href="#DejaVuSans-61" x="87.447266"/>
      <use xlink:href="#DejaVuSans-69" x="148.726562"/>
      <use xlink:href="#DejaVuSans-6e" x="176.509766"/>
      <use xlink:href="#DejaVuSans-69" x="239.888672"/>
      <use xlink:href="#DejaVuSans-6e" x="267.671875"/>
      <use xlink:href="#DejaVuSans-67" x="331.050781"/>
     </g>
    </g>
    <g id="line2d_27">
     <path d="M 701.148438 369.900312 
L 711.148438 369.900312 
L 721.148438 369.900312 
" style="fill: none; stroke-dasharray: 5.55,2.4; stroke-dashoffset: 0; stroke: #ff7f0e; stroke-width: 1.5"/>
    </g>
    <g id="text_23">
     <!-- Testing -->
     <g transform="translate(729.148438 373.400312) scale(0.1 -0.1)">
      <use xlink:href="#DejaVuSans-54"/>
      <use xlink:href="#DejaVuSans-65" x="44.083984"/>
      <use xlink:href="#DejaVuSans-73" x="105.607422"/>
      <use xlink:href="#DejaVuSans-74" x="157.707031"/>
      <use xlink:href="#DejaVuSans-69" x="196.916016"/>
      <use xlink:href="#DejaVuSans-6e" x="224.699219"/>
      <use xlink:href="#DejaVuSans-67" x="288.078125"/>
     </g>
    </g>
   </g>
  </g>
 </g>
 <defs>
  <clipPath id="p30b4abaa82">
   <rect x="108" y="51.84" width="669.6" height="332.64"/>
  </clipPath>
 </defs>
</svg>
